<?xml version="1.0" encoding="UTF-8"?>
<svg id="Layer_2" data-name="Layer 2" xmlns="http://www.w3.org/2000/svg" viewBox="0 0 423.28 251.34">
  <defs>
    <style>
      .cls-1 {
        opacity: .5;
      }

      .cls-1, .cls-2 {
        fill: #ffb3a5;
      }

      .cls-3 {
        fill: #5e5473;
      }
    </style>
  </defs>
  <g id="Layer_2-2" data-name="Layer 2">
    <polygon class="cls-2" points="38.24 22.38 37.98 22.51 37.72 22.64 37.46 22.78 37.2 22.91 36.94 23.05 36.68 23.18 36.42 23.31 36.16 23.45 35.9 23.58 35.77 23.32 35.63 23.06 35.5 22.8 35.36 22.54 35.23 22.28 35.1 22.02 34.96 21.76 34.83 21.5 34.69 21.24 34.56 20.98 34.3 21.11 34.04 21.24 33.78 21.38 33.52 21.51 33.26 21.64 33 21.78 32.74 21.91 32.48 22.05 32.22 22.18 31.96 22.31 31.7 22.45 31.44 22.58 31.17 22.71 30.91 22.85 30.65 22.98 30.39 23.12 30.13 23.25 29.87 23.38 29.61 23.52 29.35 23.65 29.09 23.78 28.83 23.92 28.57 24.05 28.31 24.19 28.05 24.32 27.79 24.45 27.53 24.59 27.27 24.72 27.01 24.86 26.75 24.99 26.49 25.12 26.22 25.26 25.96 25.39 25.7 25.52 25.44 25.66 25.18 25.79 24.92 25.93 24.66 26.06 24.4 26.19 24.14 26.33 23.88 26.46 23.62 26.59 23.36 26.73 23.1 26.86 22.84 27 22.58 27.13 22.32 27.26 22.06 27.4 21.8 27.53 21.54 27.66 21.67 27.93 21.8 28.19 21.94 28.45 22.07 28.71 22.2 28.97 22.34 29.23 22.47 29.49 22.61 29.75 22.74 30.01 22.87 30.27 22.61 30.4 22.35 30.54 22.09 30.67 21.83 30.81 21.57 30.94 21.31 31.07 21.05 31.21 20.79 31.34 20.53 31.47 20.27 31.61 20.4 31.87 20.54 32.13 20.67 32.39 20.8 32.65 20.94 32.91 21.07 33.17 21.21 33.43 21.34 33.69 21.47 33.95 21.61 34.21 21.35 34.35 21.09 34.48 20.83 34.61 20.56 34.75 20.3 34.88 20.04 35.02 19.78 35.15 19.52 35.28 19.26 35.42 19 35.55 18.87 35.29 18.73 35.03 18.6 34.77 18.47 34.51 18.33 34.25 18.2 33.99 18.06 33.73 17.93 33.47 17.8 33.21 17.66 32.95 17.4 33.08 17.14 33.21 16.88 33.35 16.62 33.48 16.36 33.61 16.1 33.75 15.84 33.88 15.58 34.02 15.32 34.15 15.06 34.28 14.8 34.42 14.54 34.55 14.28 34.69 14.02 34.82 13.76 34.95 13.5 35.09 13.23 35.22 12.97 35.35 12.71 35.49 12.45 35.62 12.32 35.36 12.19 35.1 12.05 34.84 11.92 34.58 11.78 34.32 11.65 34.06 11.52 33.8 11.38 33.54 11.25 33.28 11.12 33.02 10.85 33.15 10.59 33.28 10.33 33.42 10.07 33.55 9.81 33.69 9.55 33.82 9.29 33.95 9.03 34.09 8.77 34.22 8.51 34.35 8.25 34.49 7.99 34.62 7.73 34.76 7.47 34.89 7.21 35.02 6.95 35.16 6.69 35.29 6.43 35.42 6.17 35.56 5.91 35.69 5.64 35.83 5.38 35.96 5.12 36.09 4.86 36.23 4.6 36.36 4.34 36.5 4.08 36.63 3.82 36.76 3.56 36.9 3.3 37.03 3.43 37.29 3.57 37.55 3.7 37.81 3.84 38.07 3.97 38.33 4.1 38.59 4.24 38.85 4.37 39.11 4.5 39.37 4.64 39.64 4.38 39.77 4.12 39.9 3.86 40.04 3.6 40.17 3.34 40.3 3.08 40.44 2.81 40.57 2.55 40.71 2.29 40.84 2.03 40.97 2.17 41.23 2.3 41.49 2.43 41.75 2.57 42.02 2.7 42.28 2.84 42.54 2.97 42.8 3.1 43.06 3.24 43.32 3.37 43.58 3.5 43.84 3.64 44.1 3.77 44.36 3.91 44.62 4.04 44.88 4.17 45.14 4.31 45.4 4.44 45.66 4.58 45.92 4.71 46.18 4.84 46.44 4.98 46.7 5.11 46.97 5.24 47.23 5.38 47.49 5.51 47.75 5.65 48.01 5.78 48.27 5.91 48.53 6.05 48.79 6.31 48.65 6.57 48.52 6.83 48.39 7.09 48.25 7.35 48.12 7.61 47.99 7.87 47.85 8.13 47.72 8.39 47.58 8.65 47.45 8.79 47.71 8.92 47.97 9.05 48.23 9.19 48.49 9.32 48.75 9.45 49.01 9.59 49.27 9.72 49.53 9.86 49.8 9.99 50.06 10.12 50.32 10.26 50.58 10.39 50.84 10.52 51.1 10.66 51.36 10.79 51.62 10.93 51.88 11.06 52.14 11.19 52.4 11.33 52.66 11.59 52.53 11.85 52.39 12.11 52.26 12.37 52.13 12.63 51.99 12.89 51.86 13.15 51.72 13.41 51.59 13.67 51.46 13.93 51.32 14.07 51.58 14.2 51.84 14.33 52.1 14.47 52.36 14.6 52.63 14.74 52.89 14.87 53.15 15 53.41 15.14 53.67 15.27 53.93 15.53 53.79 15.79 53.66 16.05 53.53 16.31 53.39 16.57 53.26 16.83 53.13 17.09 52.99 17.35 52.86 17.62 52.72 17.88 52.59 18.14 52.46 18.4 52.32 18.66 52.19 18.92 52.05 19.18 51.92 19.44 51.79 19.7 51.65 19.96 51.52 20.22 51.39 20.48 51.25 20.61 51.51 20.75 51.77 20.88 52.03 21.02 52.29 21.15 52.55 21.28 52.82 21.42 53.08 21.55 53.34 21.69 53.6 21.82 53.86 22.08 53.72 22.34 53.59 22.6 53.46 22.86 53.32 23.12 53.19 23.38 53.05 23.64 52.92 23.9 52.79 24.16 52.65 24.42 52.52 24.56 52.78 24.69 53.04 24.83 53.3 24.96 53.56 25.09 53.82 25.23 54.08 25.36 54.34 25.49 54.6 25.63 54.86 25.76 55.12 25.9 55.38 26.03 55.65 26.16 55.91 26.3 56.17 26.43 56.43 26.56 56.69 26.7 56.95 26.83 57.21 26.97 57.47 27.1 57.73 27.36 57.6 27.62 57.46 27.88 57.33 28.14 57.19 28.4 57.06 28.66 56.93 28.92 56.79 29.18 56.66 29.44 56.53 29.7 56.39 29.84 56.65 29.97 56.91 30.11 57.17 30.24 57.43 30.37 57.69 30.51 57.95 30.64 58.22 30.78 58.48 30.91 58.74 31.04 59 31.3 58.86 31.56 58.73 31.82 58.6 32.08 58.46 32.35 58.33 32.61 58.19 32.87 58.06 33.13 57.93 33.39 57.79 33.65 57.66 33.91 57.52 34.17 57.39 34.43 57.26 34.69 57.12 34.95 56.99 35.21 56.86 35.47 56.72 35.73 56.59 35.99 56.45 36.25 56.32 36.12 56.06 35.99 55.8 35.85 55.54 35.72 55.28 35.58 55.02 35.45 54.76 35.32 54.5 35.18 54.24 35.05 53.98 34.92 53.72 35.18 53.58 35.44 53.45 35.7 53.31 35.96 53.18 36.22 53.05 36.48 52.91 36.74 52.78 37 52.65 37.26 52.51 37.52 52.38 37.39 52.12 37.25 51.86 37.12 51.6 36.98 51.34 36.85 51.08 36.72 50.81 36.58 50.55 36.45 50.29 36.32 50.03 36.18 49.77 36.05 49.51 35.91 49.25 35.78 48.99 35.65 48.73 35.51 48.47 35.38 48.21 35.25 47.95 35.11 47.69 34.98 47.43 34.84 47.17 35.1 47.03 35.37 46.9 35.63 46.77 35.89 46.63 36.15 46.5 36.41 46.36 36.67 46.23 36.93 46.1 37.19 45.96 37.45 45.83 37.32 45.57 37.18 45.31 37.05 45.05 36.91 44.79 36.78 44.53 36.65 44.27 36.51 44.01 36.38 43.75 36.25 43.49 36.11 43.22 36.37 43.09 36.63 42.96 36.89 42.82 37.15 42.69 37.41 42.56 37.67 42.42 37.94 42.29 38.2 42.15 38.46 42.02 38.72 41.89 38.58 41.63 38.45 41.37 38.32 41.11 38.18 40.84 38.05 40.58 37.91 40.32 37.78 40.06 37.65 39.8 37.51 39.54 37.38 39.28 37.64 39.15 37.9 39.01 38.16 38.88 38.42 38.75 38.68 38.61 38.94 38.48 39.2 38.34 39.46 38.21 39.72 38.08 39.98 37.94 39.85 37.68 39.72 37.42 39.58 37.16 39.45 36.9 39.31 36.64 39.18 36.38 39.05 36.12 38.91 35.86 38.78 35.6 38.65 35.34 38.91 35.2 39.17 35.07 39.43 34.94 39.69 34.8 39.95 34.67 40.21 34.54 40.47 34.4 40.73 34.27 40.99 34.13 41.25 34 41.12 33.74 40.98 33.48 40.85 33.22 40.72 32.96 40.58 32.7 40.45 32.44 40.31 32.18 40.18 31.92 40.05 31.66 39.91 31.4 39.78 31.13 39.65 30.87 39.51 30.61 39.38 30.35 39.24 30.09 39.11 29.83 38.98 29.57 38.84 29.31 38.71 29.05 38.57 28.79 38.84 28.66 39.1 28.52 39.36 28.39 39.62 28.26 39.88 28.12 40.14 27.99 40.4 27.85 40.66 27.72 40.92 27.59 41.18 27.45 41.05 27.19 40.91 26.93 40.78 26.67 40.64 26.41 40.51 26.15 40.38 25.89 40.24 25.63 40.11 25.37 39.98 25.11 39.84 24.85 39.71 24.59 39.57 24.33 39.44 24.07 39.31 23.81 39.17 23.54 39.04 23.28 38.91 23.02 38.77 22.76 38.64 22.5 38.5 22.24 38.24 22.38"/>
    <polygon class="cls-2" points="417.16 114.65 416.88 114.58 416.59 114.5 416.31 114.43 416.02 114.36 415.74 114.28 415.46 114.21 415.17 114.14 414.89 114.06 414.61 113.99 414.68 113.7 414.75 113.42 414.83 113.14 414.9 112.85 414.98 112.57 415.05 112.29 415.12 112 415.2 111.72 415.27 111.44 415.34 111.15 415.06 111.08 414.78 111.01 414.49 110.93 414.21 110.86 413.93 110.79 413.64 110.71 413.36 110.64 413.08 110.56 412.79 110.49 412.51 110.42 412.22 110.34 411.94 110.27 411.66 110.2 411.37 110.12 411.09 110.05 410.81 109.98 410.52 109.9 410.24 109.83 409.96 109.76 409.67 109.68 409.39 109.61 409.11 109.54 408.82 109.46 408.54 109.39 408.26 109.31 407.97 109.24 407.69 109.17 407.41 109.09 407.12 109.02 406.84 108.95 406.56 108.87 406.27 108.8 405.99 108.73 405.71 108.65 405.42 108.58 405.14 108.51 404.85 108.43 404.57 108.36 404.29 108.28 404 108.21 403.72 108.14 403.44 108.06 403.15 107.99 402.87 107.92 402.59 107.84 402.3 107.77 402.02 107.7 401.74 107.62 401.45 107.55 401.17 107.48 401.1 107.76 401.02 108.04 400.95 108.33 400.88 108.61 400.8 108.89 400.73 109.18 400.65 109.46 400.58 109.74 400.51 110.03 400.43 110.31 400.15 110.24 399.87 110.16 399.58 110.09 399.3 110.02 399.02 109.94 398.73 109.87 398.45 109.8 398.17 109.72 397.88 109.65 397.6 109.57 397.53 109.86 397.45 110.14 397.38 110.42 397.31 110.71 397.23 110.99 397.16 111.28 397.08 111.56 397.01 111.84 396.94 112.13 396.86 112.41 396.58 112.34 396.3 112.26 396.01 112.19 395.73 112.12 395.45 112.04 395.16 111.97 394.88 111.89 394.6 111.82 394.31 111.75 394.03 111.67 394.1 111.39 394.18 111.11 394.25 110.82 394.32 110.54 394.4 110.26 394.47 109.97 394.54 109.69 394.62 109.41 394.69 109.12 394.76 108.84 394.48 108.77 394.2 108.69 393.91 108.62 393.63 108.54 393.35 108.47 393.06 108.4 392.78 108.32 392.5 108.25 392.21 108.18 391.93 108.1 391.65 108.03 391.36 107.96 391.08 107.88 390.8 107.81 390.51 107.74 390.23 107.66 389.95 107.59 389.66 107.51 389.38 107.44 389.1 107.37 389.17 107.08 389.24 106.8 389.32 106.52 389.39 106.23 389.46 105.95 389.54 105.67 389.61 105.38 389.68 105.1 389.76 104.82 389.83 104.53 389.55 104.46 389.26 104.39 388.98 104.31 388.7 104.24 388.41 104.17 388.13 104.09 387.85 104.02 387.56 103.94 387.28 103.87 387 103.8 386.71 103.72 386.43 103.65 386.15 103.58 385.86 103.5 385.58 103.43 385.3 103.36 385.01 103.28 384.73 103.21 384.45 103.14 384.16 103.06 383.88 102.99 383.59 102.91 383.31 102.84 383.03 102.77 382.74 102.69 382.46 102.62 382.18 102.55 381.89 102.47 381.61 102.4 381.33 102.33 381.25 102.61 381.18 102.89 381.11 103.18 381.03 103.46 380.96 103.74 380.89 104.03 380.81 104.31 380.74 104.59 380.66 104.88 380.59 105.16 380.31 105.09 380.02 105.01 379.74 104.94 379.46 104.87 379.17 104.79 378.89 104.72 378.61 104.65 378.32 104.57 378.04 104.5 377.76 104.43 377.68 104.71 377.61 104.99 377.54 105.28 377.46 105.56 377.39 105.84 377.32 106.13 377.24 106.41 377.17 106.69 377.09 106.98 377.02 107.26 376.95 107.54 376.87 107.83 376.8 108.11 376.73 108.39 376.65 108.68 376.58 108.96 376.51 109.24 376.43 109.53 376.36 109.81 376.29 110.09 376.21 110.38 376.14 110.66 376.06 110.95 375.99 111.23 375.92 111.51 375.84 111.8 375.77 112.08 375.7 112.36 375.62 112.65 375.55 112.93 375.83 113 376.12 113.08 376.4 113.15 376.68 113.22 376.97 113.3 377.25 113.37 377.53 113.44 377.82 113.52 378.1 113.59 378.38 113.67 378.31 113.95 378.24 114.23 378.16 114.52 378.09 114.8 378.02 115.08 377.94 115.37 377.87 115.65 377.8 115.93 377.72 116.22 377.65 116.5 377.58 116.78 377.5 117.07 377.43 117.35 377.35 117.63 377.28 117.92 377.21 118.2 377.13 118.48 377.06 118.77 376.99 119.05 376.91 119.33 377.2 119.41 377.48 119.48 377.76 119.56 378.05 119.63 378.33 119.7 378.61 119.78 378.9 119.85 379.18 119.92 379.46 120 379.75 120.07 379.67 120.35 379.6 120.64 379.53 120.92 379.45 121.2 379.38 121.49 379.31 121.77 379.23 122.05 379.16 122.34 379.09 122.62 379.01 122.9 379.3 122.98 379.58 123.05 379.86 123.13 380.15 123.2 380.43 123.27 380.71 123.35 381 123.42 381.28 123.49 381.56 123.57 381.85 123.64 382.13 123.71 382.41 123.79 382.7 123.86 382.98 123.93 383.26 124.01 383.55 124.08 383.83 124.16 384.11 124.23 384.4 124.3 384.68 124.38 384.61 124.66 384.53 124.94 384.46 125.23 384.39 125.51 384.31 125.79 384.24 126.08 384.17 126.36 384.09 126.64 384.02 126.93 383.95 127.21 384.23 127.28 384.51 127.36 384.8 127.43 385.08 127.5 385.36 127.58 385.65 127.65 385.93 127.73 386.21 127.8 386.5 127.87 386.78 127.95 386.71 128.23 386.63 128.51 386.56 128.8 386.49 129.08 386.41 129.36 386.34 129.65 386.27 129.93 386.19 130.21 386.12 130.5 386.05 130.78 385.97 131.06 385.9 131.35 385.82 131.63 385.75 131.91 385.68 132.2 385.6 132.48 385.53 132.77 385.46 133.05 385.38 133.33 385.31 133.62 385.59 133.69 385.88 133.76 386.16 133.84 386.44 133.91 386.73 133.98 387.01 134.06 387.29 134.13 387.58 134.2 387.86 134.28 388.14 134.35 388.07 134.63 388 134.92 387.92 135.2 387.85 135.49 387.78 135.77 387.7 136.05 387.63 136.34 387.56 136.62 387.48 136.9 387.41 137.19 387.69 137.26 387.98 137.33 388.26 137.41 388.54 137.48 388.83 137.55 389.11 137.63 389.39 137.7 389.68 137.77 389.96 137.85 390.24 137.92 390.53 137.99 390.81 138.07 391.09 138.14 391.38 138.22 391.66 138.29 391.94 138.36 392.23 138.44 392.51 138.51 392.79 138.58 393.08 138.66 393.15 138.37 393.23 138.09 393.3 137.81 393.37 137.52 393.45 137.24 393.52 136.96 393.59 136.67 393.67 136.39 393.74 136.11 393.81 135.82 394.1 135.9 394.38 135.97 394.66 136.04 394.95 136.12 395.23 136.19 395.51 136.26 395.8 136.34 396.08 136.41 396.37 136.48 396.65 136.56 396.72 136.27 396.8 135.99 396.87 135.71 396.94 135.42 397.02 135.14 397.09 134.86 397.16 134.57 397.24 134.29 397.31 134.01 397.38 133.72 397.46 133.44 397.53 133.16 397.6 132.87 397.68 132.59 397.75 132.31 397.83 132.02 397.9 131.74 397.97 131.46 398.05 131.17 398.12 130.89 398.4 130.96 398.69 131.04 398.97 131.11 399.25 131.18 399.54 131.26 399.82 131.33 400.1 131.4 400.39 131.48 400.67 131.55 400.95 131.62 401.03 131.34 401.1 131.06 401.18 130.77 401.25 130.49 401.32 130.21 401.4 129.92 401.47 129.64 401.54 129.36 401.62 129.07 401.69 128.79 401.97 128.86 402.26 128.94 402.54 129.01 402.82 129.08 403.11 129.16 403.39 129.23 403.67 129.3 403.96 129.38 404.24 129.45 404.52 129.53 404.6 129.24 404.67 128.96 404.75 128.67 404.82 128.39 404.89 128.11 404.97 127.82 405.04 127.54 405.11 127.26 405.19 126.97 405.26 126.69 405.54 126.76 405.83 126.84 406.11 126.91 406.39 126.98 406.68 127.06 406.96 127.13 407.24 127.21 407.53 127.28 407.81 127.35 408.09 127.43 408.17 127.14 408.24 126.86 408.32 126.58 408.39 126.29 408.46 126.01 408.54 125.73 408.61 125.44 408.68 125.16 408.76 124.87 408.83 124.59 409.11 124.66 409.4 124.74 409.68 124.81 409.96 124.89 410.25 124.96 410.53 125.03 410.81 125.11 411.1 125.18 411.38 125.25 411.67 125.33 411.74 125.04 411.81 124.76 411.89 124.48 411.96 124.19 412.03 123.91 412.11 123.63 412.18 123.34 412.25 123.06 412.33 122.78 412.4 122.49 412.47 122.21 412.55 121.93 412.62 121.64 412.7 121.36 412.77 121.07 412.84 120.79 412.92 120.51 412.99 120.22 413.06 119.94 413.14 119.66 413.42 119.73 413.7 119.8 413.99 119.88 414.27 119.95 414.55 120.03 414.84 120.1 415.12 120.17 415.4 120.25 415.69 120.32 415.97 120.39 416.04 120.11 416.12 119.83 416.19 119.54 416.27 119.26 416.34 118.98 416.41 118.69 416.49 118.41 416.56 118.13 416.63 117.84 416.71 117.56 416.78 117.27 416.85 116.99 416.93 116.71 417 116.42 417.07 116.14 417.15 115.86 417.22 115.57 417.3 115.29 417.37 115.01 417.44 114.72 417.16 114.65"/>
    <polygon class="cls-2" points="420.31 1.41 420.05 1.54 419.78 1.68 419.52 1.81 419.26 1.94 419 2.08 418.74 2.21 418.48 2.34 418.22 2.48 417.96 2.61 417.83 2.35 417.69 2.09 417.56 1.83 417.43 1.57 417.29 1.3 417.16 1.04 417.03 .78 416.89 .52 416.76 .26 416.63 0 416.37 .13 416.11 .27 415.85 .4 415.58 .53 415.32 .67 415.06 .8 414.8 .93 414.54 1.06 414.28 1.2 414.02 1.33 413.76 1.46 413.5 1.6 413.24 1.73 412.98 1.86 412.71 2 412.45 2.13 412.19 2.26 411.93 2.39 411.67 2.53 411.41 2.66 411.15 2.79 410.89 2.93 410.63 3.06 410.37 3.19 410.11 3.33 409.84 3.46 409.58 3.59 409.32 3.72 409.06 3.86 408.8 3.99 408.54 4.12 408.28 4.26 408.02 4.39 407.76 4.52 407.5 4.66 407.24 4.79 406.97 4.92 406.71 5.05 406.45 5.19 406.19 5.32 405.93 5.45 405.67 5.59 405.41 5.72 405.15 5.85 404.89 5.99 404.63 6.12 404.37 6.25 404.1 6.38 403.84 6.52 403.58 6.65 403.72 6.91 403.85 7.17 403.98 7.43 404.11 7.69 404.25 7.96 404.38 8.22 404.51 8.48 404.65 8.74 404.78 9 404.91 9.26 404.65 9.39 404.39 9.53 404.13 9.66 403.87 9.79 403.61 9.92 403.35 10.06 403.09 10.19 402.83 10.32 402.56 10.46 402.3 10.59 402.44 10.85 402.57 11.11 402.7 11.37 402.84 11.63 402.97 11.89 403.1 12.16 403.23 12.42 403.37 12.68 403.5 12.94 403.63 13.2 403.37 13.33 403.11 13.46 402.85 13.6 402.59 13.73 402.33 13.86 402.07 14 401.81 14.13 401.55 14.26 401.29 14.4 401.02 14.53 400.89 14.27 400.76 14.01 400.63 13.75 400.49 13.49 400.36 13.22 400.23 12.96 400.09 12.7 399.96 12.44 399.83 12.18 399.69 11.92 399.43 12.05 399.17 12.19 398.91 12.32 398.65 12.45 398.39 12.58 398.13 12.72 397.87 12.85 397.61 12.98 397.35 13.12 397.09 13.25 396.82 13.38 396.56 13.52 396.3 13.65 396.04 13.78 395.78 13.92 395.52 14.05 395.26 14.18 395 14.31 394.74 14.45 394.48 14.58 394.34 14.32 394.21 14.06 394.08 13.8 393.94 13.54 393.81 13.28 393.68 13.01 393.55 12.75 393.41 12.49 393.28 12.23 393.15 11.97 392.89 12.1 392.62 12.24 392.36 12.37 392.1 12.5 391.84 12.64 391.58 12.77 391.32 12.9 391.06 13.04 390.8 13.17 390.54 13.3 390.28 13.43 390.02 13.57 389.75 13.7 389.49 13.83 389.23 13.97 388.97 14.1 388.71 14.23 388.45 14.37 388.19 14.5 387.93 14.63 387.67 14.76 387.41 14.9 387.15 15.03 386.88 15.16 386.62 15.3 386.36 15.43 386.1 15.56 385.84 15.7 385.58 15.83 385.32 15.96 385.45 16.22 385.59 16.48 385.72 16.74 385.85 17.01 385.98 17.27 386.12 17.53 386.25 17.79 386.38 18.05 386.52 18.31 386.65 18.57 386.39 18.7 386.13 18.84 385.87 18.97 385.61 19.1 385.34 19.24 385.08 19.37 384.82 19.5 384.56 19.63 384.3 19.77 384.04 19.9 384.17 20.16 384.31 20.42 384.44 20.68 384.57 20.94 384.71 21.21 384.84 21.47 384.97 21.73 385.1 21.99 385.24 22.25 385.37 22.51 385.5 22.77 385.64 23.03 385.77 23.29 385.9 23.55 386.04 23.81 386.17 24.08 386.3 24.34 386.43 24.6 386.57 24.86 386.7 25.12 386.83 25.38 386.97 25.64 387.1 25.9 387.23 26.16 387.37 26.42 387.5 26.68 387.63 26.95 387.76 27.21 387.9 27.47 388.03 27.73 388.29 27.59 388.55 27.46 388.81 27.33 389.07 27.2 389.34 27.06 389.6 26.93 389.86 26.8 390.12 26.66 390.38 26.53 390.64 26.4 390.77 26.66 390.91 26.92 391.04 27.18 391.17 27.44 391.3 27.7 391.44 27.96 391.57 28.22 391.7 28.49 391.84 28.75 391.97 29.01 392.1 29.27 392.24 29.53 392.37 29.79 392.5 30.05 392.63 30.31 392.77 30.57 392.9 30.83 393.03 31.09 393.17 31.36 393.3 31.62 393.56 31.48 393.82 31.35 394.08 31.22 394.34 31.08 394.6 30.95 394.87 30.82 395.13 30.68 395.39 30.55 395.65 30.42 395.91 30.29 396.04 30.55 396.17 30.81 396.31 31.07 396.44 31.33 396.57 31.59 396.71 31.85 396.84 32.11 396.97 32.37 397.11 32.63 397.24 32.89 397.5 32.76 397.76 32.63 398.02 32.5 398.28 32.36 398.54 32.23 398.8 32.1 399.07 31.96 399.33 31.83 399.59 31.7 399.85 31.56 400.11 31.43 400.37 31.3 400.63 31.17 400.89 31.03 401.15 30.9 401.41 30.77 401.67 30.63 401.94 30.5 402.2 30.37 402.46 30.23 402.59 30.5 402.72 30.76 402.86 31.02 402.99 31.28 403.12 31.54 403.26 31.8 403.39 32.06 403.52 32.32 403.65 32.58 403.79 32.84 404.05 32.71 404.31 32.58 404.57 32.44 404.83 32.31 405.09 32.18 405.35 32.05 405.61 31.91 405.87 31.78 406.14 31.65 406.4 31.51 406.53 31.77 406.66 32.04 406.8 32.3 406.93 32.56 407.06 32.82 407.19 33.08 407.33 33.34 407.46 33.6 407.59 33.86 407.73 34.12 407.86 34.38 407.99 34.64 408.13 34.91 408.26 35.17 408.39 35.43 408.52 35.69 408.66 35.95 408.79 36.21 408.92 36.47 409.06 36.73 409.32 36.6 409.58 36.47 409.84 36.33 410.1 36.2 410.36 36.07 410.62 35.93 410.88 35.8 411.14 35.67 411.4 35.53 411.67 35.4 411.8 35.66 411.93 35.92 412.06 36.18 412.2 36.45 412.33 36.71 412.46 36.97 412.6 37.23 412.73 37.49 412.86 37.75 413 38.01 413.26 37.88 413.52 37.74 413.78 37.61 414.04 37.48 414.3 37.35 414.56 37.21 414.82 37.08 415.08 36.95 415.34 36.81 415.6 36.68 415.87 36.55 416.13 36.41 416.39 36.28 416.65 36.15 416.91 36.02 417.17 35.88 417.43 35.75 417.69 35.62 417.95 35.48 418.21 35.35 418.08 35.09 417.95 34.83 417.81 34.57 417.68 34.31 417.55 34.05 417.42 33.79 417.28 33.52 417.15 33.26 417.02 33 416.88 32.74 417.14 32.61 417.41 32.48 417.67 32.34 417.93 32.21 418.19 32.08 418.45 31.94 418.71 31.81 418.97 31.68 419.23 31.54 419.49 31.41 419.36 31.15 419.23 30.89 419.09 30.63 418.96 30.37 418.83 30.11 418.69 29.85 418.56 29.58 418.43 29.32 418.3 29.06 418.16 28.8 418.03 28.54 417.9 28.28 417.76 28.02 417.63 27.76 417.5 27.5 417.36 27.24 417.23 26.98 417.1 26.71 416.97 26.45 416.83 26.19 417.09 26.06 417.35 25.93 417.62 25.79 417.88 25.66 418.14 25.53 418.4 25.4 418.66 25.26 418.92 25.13 419.18 25 419.44 24.86 419.31 24.6 419.18 24.34 419.04 24.08 418.91 23.82 418.78 23.56 418.64 23.3 418.51 23.04 418.38 22.78 418.24 22.51 418.11 22.25 418.37 22.12 418.63 21.99 418.89 21.85 419.16 21.72 419.42 21.59 419.68 21.46 419.94 21.32 420.2 21.19 420.46 21.06 420.72 20.92 420.59 20.66 420.45 20.4 420.32 20.14 420.19 19.88 420.06 19.62 419.92 19.36 419.79 19.1 419.66 18.84 419.52 18.58 419.39 18.31 419.65 18.18 419.91 18.05 420.17 17.92 420.43 17.78 420.7 17.65 420.96 17.52 421.22 17.38 421.48 17.25 421.74 17.12 422 16.98 421.87 16.72 421.73 16.46 421.6 16.2 421.47 15.94 421.33 15.68 421.2 15.42 421.07 15.16 420.94 14.9 420.8 14.64 420.67 14.38 420.93 14.24 421.19 14.11 421.45 13.98 421.71 13.84 421.97 13.71 422.24 13.58 422.5 13.44 422.76 13.31 423.02 13.18 423.28 13.05 423.15 12.78 423.01 12.52 422.88 12.26 422.75 12 422.61 11.74 422.48 11.48 422.35 11.22 422.21 10.96 422.08 10.7 421.95 10.44 421.82 10.18 421.68 9.91 421.55 9.65 421.42 9.39 421.28 9.13 421.15 8.87 421.02 8.61 420.88 8.35 420.75 8.09 420.62 7.83 420.88 7.69 421.14 7.56 421.4 7.43 421.66 7.3 421.92 7.16 422.18 7.03 422.44 6.9 422.71 6.76 422.97 6.63 423.23 6.5 423.09 6.24 422.96 5.98 422.83 5.71 422.7 5.45 422.56 5.19 422.43 4.93 422.3 4.67 422.16 4.41 422.03 4.15 421.9 3.89 421.76 3.63 421.63 3.37 421.5 3.11 421.37 2.84 421.23 2.58 421.1 2.32 420.97 2.06 420.83 1.8 420.7 1.54 420.57 1.28 420.31 1.41"/>
    <polygon class="cls-2" points="40.29 131.88 40.03 131.74 39.77 131.61 39.51 131.47 39.25 131.34 38.99 131.2 38.73 131.07 38.47 130.94 38.21 130.8 37.95 130.67 38.08 130.41 38.21 130.15 38.35 129.89 38.48 129.63 38.62 129.37 38.75 129.11 38.89 128.85 39.02 128.59 39.15 128.33 39.29 128.07 39.03 127.93 38.77 127.8 38.51 127.66 38.25 127.53 37.99 127.39 37.73 127.26 37.47 127.13 37.21 126.99 36.95 126.86 36.68 126.72 36.42 126.59 36.16 126.45 35.9 126.32 35.64 126.19 35.38 126.05 35.12 125.92 34.86 125.78 34.6 125.65 34.34 125.52 34.08 125.38 33.82 125.25 33.56 125.11 33.3 124.98 33.04 124.84 32.78 124.71 32.52 124.58 32.26 124.44 32 124.31 31.74 124.17 31.48 124.04 31.22 123.91 30.96 123.77 30.7 123.64 30.44 123.5 30.18 123.37 29.92 123.23 29.66 123.1 29.4 122.97 29.14 122.83 28.88 122.7 28.62 122.56 28.36 122.43 28.09 122.3 27.83 122.16 27.57 122.03 27.31 121.89 27.05 121.76 26.79 121.62 26.53 121.49 26.27 121.36 26.14 121.62 26 121.88 25.87 122.14 25.74 122.4 25.6 122.66 25.47 122.92 25.33 123.18 25.2 123.44 25.06 123.7 24.93 123.96 24.67 123.82 24.41 123.69 24.15 123.56 23.89 123.42 23.63 123.29 23.37 123.15 23.11 123.02 22.85 122.89 22.59 122.75 22.33 122.62 22.19 122.88 22.06 123.14 21.93 123.4 21.79 123.66 21.66 123.92 21.52 124.18 21.39 124.44 21.25 124.7 21.12 124.96 20.99 125.22 20.73 125.09 20.47 124.95 20.2 124.82 19.94 124.68 19.68 124.55 19.42 124.41 19.16 124.28 18.9 124.15 18.64 124.01 18.38 123.88 18.52 123.62 18.65 123.36 18.79 123.1 18.92 122.84 19.05 122.58 19.19 122.32 19.32 122.06 19.46 121.8 19.59 121.54 19.72 121.28 19.46 121.14 19.2 121.01 18.94 120.87 18.68 120.74 18.42 120.6 18.16 120.47 17.9 120.34 17.64 120.2 17.38 120.07 17.12 119.93 16.86 119.8 16.6 119.66 16.34 119.53 16.08 119.4 15.82 119.26 15.56 119.13 15.3 118.99 15.04 118.86 14.78 118.73 14.52 118.59 14.65 118.33 14.79 118.07 14.92 117.81 15.06 117.55 15.19 117.29 15.32 117.03 15.46 116.77 15.59 116.51 15.73 116.25 15.86 115.99 15.6 115.85 15.34 115.72 15.08 115.59 14.82 115.45 14.56 115.32 14.3 115.18 14.04 115.05 13.78 114.91 13.52 114.78 13.26 114.65 13 114.51 12.74 114.38 12.48 114.24 12.22 114.11 11.96 113.98 11.7 113.84 11.44 113.71 11.17 113.57 10.91 113.44 10.65 113.3 10.39 113.17 10.13 113.04 9.87 112.9 9.61 112.77 9.35 112.63 9.09 112.5 8.83 112.37 8.57 112.23 8.31 112.1 8.05 111.96 7.92 112.22 7.78 112.48 7.65 112.74 7.51 113 7.38 113.26 7.25 113.52 7.11 113.78 6.98 114.05 6.84 114.31 6.71 114.57 6.45 114.43 6.19 114.3 5.93 114.16 5.67 114.03 5.41 113.89 5.15 113.76 4.89 113.63 4.63 113.49 4.37 113.36 4.11 113.22 3.97 113.48 3.84 113.74 3.7 114 3.57 114.27 3.44 114.53 3.3 114.79 3.17 115.05 3.03 115.31 2.9 115.57 2.76 115.83 2.63 116.09 2.5 116.35 2.36 116.61 2.23 116.87 2.09 117.13 1.96 117.39 1.83 117.65 1.69 117.91 1.56 118.17 1.42 118.43 1.29 118.69 1.15 118.95 1.02 119.21 .89 119.47 .75 119.73 .62 119.99 .48 120.25 .35 120.51 .21 120.77 .08 121.03 .34 121.17 .6 121.3 .86 121.44 1.12 121.57 1.38 121.7 1.64 121.84 1.9 121.97 2.16 122.11 2.42 122.24 2.68 122.37 2.55 122.64 2.42 122.9 2.28 123.16 2.15 123.42 2.01 123.68 1.88 123.94 1.74 124.2 1.61 124.46 1.48 124.72 1.34 124.98 1.21 125.24 1.07 125.5 .94 125.76 .81 126.02 .67 126.28 .54 126.54 .4 126.8 .27 127.06 .13 127.32 0 127.58 .26 127.72 .52 127.85 .78 127.98 1.04 128.12 1.3 128.25 1.56 128.39 1.82 128.52 2.08 128.65 2.34 128.79 2.6 128.92 2.47 129.18 2.33 129.44 2.2 129.7 2.07 129.96 1.93 130.22 1.8 130.48 1.66 130.75 1.53 131.01 1.4 131.27 1.26 131.53 1.52 131.66 1.78 131.79 2.04 131.93 2.3 132.06 2.56 132.2 2.82 132.33 3.08 132.47 3.34 132.6 3.6 132.73 3.86 132.87 4.12 133 4.38 133.14 4.65 133.27 4.91 133.4 5.17 133.54 5.43 133.67 5.69 133.81 5.95 133.94 6.21 134.08 6.47 134.21 6.33 134.47 6.2 134.73 6.06 134.99 5.93 135.25 5.8 135.51 5.66 135.77 5.53 136.03 5.39 136.29 5.26 136.55 5.13 136.81 5.39 136.95 5.65 137.08 5.91 137.22 6.17 137.35 6.43 137.48 6.69 137.62 6.95 137.75 7.21 137.89 7.47 138.02 7.73 138.15 7.59 138.41 7.46 138.68 7.33 138.94 7.19 139.2 7.06 139.46 6.92 139.72 6.79 139.98 6.66 140.24 6.52 140.5 6.39 140.76 6.25 141.02 6.12 141.28 5.98 141.54 5.85 141.8 5.72 142.06 5.58 142.32 5.45 142.58 5.31 142.84 5.18 143.1 5.04 143.36 5.31 143.49 5.57 143.63 5.83 143.76 6.09 143.9 6.35 144.03 6.61 144.17 6.87 144.3 7.13 144.43 7.39 144.57 7.65 144.7 7.51 144.96 7.38 145.22 7.25 145.48 7.11 145.74 6.98 146 6.84 146.26 6.71 146.52 6.57 146.79 6.44 147.05 6.31 147.31 6.57 147.44 6.83 147.57 7.09 147.71 7.35 147.84 7.61 147.98 7.87 148.11 8.13 148.24 8.39 148.38 8.65 148.51 8.91 148.65 9.17 148.78 9.43 148.92 9.69 149.05 9.95 149.18 10.21 149.32 10.47 149.45 10.73 149.59 10.99 149.72 11.25 149.86 11.51 149.99 11.65 149.73 11.78 149.47 11.91 149.21 12.05 148.95 12.18 148.69 12.32 148.43 12.45 148.17 12.59 147.91 12.72 147.65 12.85 147.39 13.11 147.52 13.37 147.65 13.63 147.79 13.9 147.92 14.16 148.06 14.42 148.19 14.68 148.33 14.94 148.46 15.2 148.59 15.46 148.73 15.59 148.47 15.73 148.21 15.86 147.95 15.99 147.69 16.13 147.43 16.26 147.17 16.4 146.91 16.53 146.65 16.66 146.39 16.8 146.13 16.93 145.86 17.07 145.6 17.2 145.34 17.34 145.08 17.47 144.82 17.6 144.56 17.74 144.3 17.87 144.04 18.01 143.78 18.14 143.52 18.4 143.66 18.66 143.79 18.92 143.92 19.18 144.06 19.44 144.19 19.7 144.33 19.96 144.46 20.22 144.6 20.48 144.73 20.74 144.86 20.88 144.6 21.01 144.34 21.15 144.08 21.28 143.82 21.41 143.56 21.55 143.3 21.68 143.04 21.82 142.78 21.95 142.52 22.09 142.26 22.35 142.4 22.61 142.53 22.87 142.66 23.13 142.8 23.39 142.93 23.65 143.07 23.91 143.2 24.17 143.33 24.43 143.47 24.69 143.6 24.82 143.34 24.96 143.08 25.09 142.82 25.23 142.56 25.36 142.3 25.49 142.04 25.63 141.78 25.76 141.52 25.9 141.26 26.03 141 26.29 141.13 26.55 141.27 26.81 141.4 27.07 141.54 27.33 141.67 27.59 141.8 27.85 141.94 28.11 142.07 28.37 142.21 28.63 142.34 28.77 142.08 28.9 141.82 29.04 141.56 29.17 141.3 29.3 141.04 29.44 140.78 29.57 140.52 29.71 140.26 29.84 140 29.98 139.74 30.24 139.87 30.5 140.01 30.76 140.14 31.02 140.28 31.28 140.41 31.54 140.54 31.8 140.68 32.06 140.81 32.32 140.95 32.58 141.08 32.71 140.82 32.85 140.56 32.98 140.3 33.12 140.04 33.25 139.78 33.38 139.52 33.52 139.26 33.65 139 33.79 138.74 33.92 138.48 34.05 138.22 34.19 137.96 34.32 137.7 34.46 137.44 34.59 137.18 34.73 136.92 34.86 136.66 34.99 136.39 35.13 136.13 35.26 135.87 35.52 136.01 35.78 136.14 36.04 136.28 36.3 136.41 36.56 136.55 36.82 136.68 37.08 136.81 37.34 136.95 37.61 137.08 37.87 137.22 38 136.96 38.13 136.7 38.27 136.44 38.4 136.17 38.54 135.91 38.67 135.65 38.8 135.39 38.94 135.13 39.07 134.87 39.21 134.61 39.34 134.35 39.48 134.09 39.61 133.83 39.74 133.57 39.88 133.31 40.01 133.05 40.15 132.79 40.28 132.53 40.41 132.27 40.55 132.01 40.29 131.88"/>
    <g>
      <rect class="cls-1" x="59.79" y="15.44" width="288" height="49.9" rx="24.95" ry="24.95"/>
      <g>
        <path class="cls-3" d="M100.34,46.49v-9.78c0-1.94.97-2.62,2.57-2.67,1.11,0,2.32.41,2.32,1.86v2.51c.35-3.67,2.59-4.38,3.65-4.38,1.16,0,2.4.41,2.4,2.46,0,1.7-.84,3.24-2.19,3.24-.68,0-1.11-.3-1.54-.57-.41-.3-.81-.51-1.27-.41-.7.16-.81,1.11-.81,2.62v5.16c0,1.73-.97,2.59-2.57,2.59s-2.57-.89-2.57-2.65Z"/>
        <path class="cls-3" d="M111.71,41.63c0-4.48,2.57-7.64,7.18-7.64,3.86,0,6.67,2.38,6.67,6.32,0,1.57-.73,2.59-2.46,2.59h-6.48v.03c.05,1.22.86,2.4,2.65,2.4,1.11,0,1.62-.38,2.35-.89.41-.32.89-.57,1.49-.57,1.24,0,1.86.86,1.86,1.89,0,.81-.3,1.38-.76,1.84-.89.89-2.62,1.57-5,1.57-4.89,0-7.51-2.92-7.51-7.54ZM120.92,40.58c0-1.38-.49-2.81-2.03-2.81-1.62,0-2.19,1.19-2.3,2.81h4.32Z"/>
        <path class="cls-3" d="M128.86,48.35c-1.08-.51-1.92-1.32-1.89-2.35,0-1,.73-2.05,1.86-2.05.73,0,1.32.35,1.97.7.84.41,1.62.76,2.57.76.78,0,1.51-.27,1.51-1,0-.86-1.13-.92-3.24-1.43-2.13-.54-4.32-1.38-4.32-4.32s2.51-4.65,6.21-4.65c1.13,0,2.51.22,3.62.76.97.51,1.65,1.21,1.65,2.24s-.62,2.03-1.86,2.03c-.78,0-1.27-.32-1.86-.65-.59-.3-1.13-.57-1.92-.57-.84,0-1.32.32-1.32.89,0,.84,1.19,1.05,2.54,1.32,2.21.46,5.21,1.08,5.21,4.43s-3.48,4.67-6.62,4.67c-1.08,0-2.75-.13-4.1-.78Z"/>
        <path class="cls-3" d="M142.36,44.28v-6.1h-.4c-1.3,0-1.84-.51-1.84-2s.59-1.97,1.84-1.97h.4v-1.76c0-2.35.92-3.05,2.57-3.05,1.54,0,2.13.84,2.13,2.43v2.38h1.73c1.08,0,1.75.54,1.75,1.97s-.73,2-1.75,2h-1.73l-.03,5.37c0,.86.3,1.22.81,1.22s1.03-.38,1.75-.38c.84,0,1.81.65,1.81,2.08,0,2-2.4,2.67-4.19,2.67-3.05,0-4.86-1.78-4.86-4.86Z"/>
        <path class="cls-3" d="M152.68,43.55v-6.78c0-1.78.97-2.73,2.51-2.73s2.49.95,2.49,2.67v5.64c0,1.49.46,2.4,1.73,2.4,1.16,0,1.97-1.03,1.97-2.84v-5.21c0-1.73.86-2.67,2.46-2.67s2.51.95,2.51,2.67v9.72c0,1.76-.65,2.7-2.19,2.7-1.75,0-2.32-1-2.35-2.43l-.05-1.89c-.35,2.92-2.13,4.32-4.35,4.32-2.84,0-4.73-1.92-4.73-5.59Z"/>
        <path class="cls-3" d="M169.07,46.49v-9.78c0-1.94.97-2.62,2.57-2.67,1.11,0,2.32.41,2.32,1.86v2.51c.35-3.67,2.59-4.38,3.65-4.38,1.16,0,2.4.41,2.4,2.46,0,1.7-.84,3.24-2.19,3.24-.68,0-1.11-.3-1.54-.57-.4-.3-.81-.51-1.27-.41-.7.16-.81,1.11-.81,2.62v5.16c0,1.73-.97,2.59-2.57,2.59s-2.57-.89-2.57-2.65Z"/>
        <path class="cls-3" d="M192.41,49.14c-1.78,0-3.24-1.13-3.27-3.19-.41,1.84-1.7,3.19-3.92,3.19-2.7,0-4.89-1.67-4.89-4.56s2.16-4.46,4.92-4.46c2.08,0,3.27.84,3.75,1.46l-.03-1.97c0-.97-.62-1.78-1.95-1.81-.89,0-1.4.35-1.89.62-.54.3-1.13.76-2.05.76-.97,0-1.86-.81-1.86-2.16,0-.95.62-1.57,1.27-2,1.11-.73,2.86-1.03,4.21-1.03,5.75,0,6.91,2.62,6.91,6.16v3.59c0,1.03.27,1.4.59,1.67.38.35.78.65.78,1.73,0,1.54-1.24,2-2.59,2ZM189,44.63v-1c-.43-.32-1.16-.78-1.97-.78-1.13,0-1.94.65-1.94,1.73s.84,1.62,1.76,1.62c1.03,0,1.81-.62,2.16-1.57Z"/>
        <path class="cls-3" d="M196.46,46.22v-9.24c0-1.95.73-2.84,2.49-2.86,1.16-.03,2.46.41,2.38,2.32l-.08,2.05c.41-3,2.19-4.46,4.73-4.46,3.11,0,4.7,1.92,4.73,5.51l.03,6.67c.03,1.76-1,2.92-2.54,2.92-1.62,0-2.57-1.22-2.57-2.92v-5.48c0-1.4-.57-2.32-1.73-2.32-1.54,0-2.19,1.19-2.32,2.78v5.02c0,1.76-.95,2.92-2.54,2.92s-2.57-1.16-2.57-2.92Z"/>
        <path class="cls-3" d="M214.2,44.28v-6.1h-.4c-1.3,0-1.84-.51-1.84-2s.59-1.97,1.84-1.97h.4v-1.76c0-2.35.92-3.05,2.57-3.05,1.54,0,2.13.84,2.13,2.43v2.38h1.73c1.08,0,1.75.54,1.75,1.97s-.73,2-1.75,2h-1.73l-.03,5.37c0,.86.3,1.22.81,1.22s1.03-.38,1.75-.38c.84,0,1.81.65,1.81,2.08,0,2-2.4,2.67-4.19,2.67-3.05,0-4.86-1.78-4.86-4.86Z"/>
        <path class="cls-3" d="M234.37,27.5c1.78-1.7,3.29-1.54,4.1-.59.78.86.92,2.21-.24,3.27-2.67,2.43-3.62,5.67-3.62,9.72s.95,7.29,3.62,9.72c1.16,1.05,1.03,2.4.24,3.27-.81.95-2.32,1.11-4.1-.59-2.78-2.62-4.43-7.21-4.43-12.4s1.65-9.78,4.43-12.4Z"/>
        <path class="cls-3" d="M241.64,52.89c0-.84.41-1.65,1.08-2.38.78-.89,2.03-1.75,3.86-2.08-2.3-.05-3.11-.54-4-2.3-.41-.84-.89-1.94-1.67-3.89-.92-2.3-1.89-4.35-1.89-5.62,0-1.46,1.03-2.65,2.81-2.65,1.49,0,2.27.76,2.7,2.65.27,1.05.65,2.92,1.16,5.21.35,1.57.68,3,.86,4.19.16-1.16.38-2.57.7-4.08.35-1.94.59-3.38.95-4.81.35-1.78.92-3.16,2.86-3.16,1.54,0,2.67.86,2.67,2.57s-1.16,4-1.92,5.83l-3.02,7c-.59,1.35-1.46,3.54-2.4,4.67-.59.78-1.43,1.22-2.35,1.19-1.3-.03-2.4-1.05-2.4-2.35Z"/>
        <path class="cls-3" d="M255.46,43.55v-6.78c0-1.78.97-2.73,2.51-2.73s2.49.95,2.49,2.67v5.64c0,1.49.46,2.4,1.73,2.4,1.16,0,1.97-1.03,1.97-2.84v-5.21c0-1.73.86-2.67,2.46-2.67s2.51.95,2.51,2.67v9.72c0,1.76-.65,2.7-2.19,2.7-1.75,0-2.32-1-2.35-2.43l-.05-1.89c-.35,2.92-2.13,4.32-4.35,4.32-2.84,0-4.73-1.92-4.73-5.59Z"/>
        <path class="cls-3" d="M271.86,46.49v-9.75c0-1.78.89-2.67,2.43-2.67,1.22,0,1.84.38,2.11,1.08.24.81.27,1.84.27,3.43.51-3.4,2.27-4.54,4.7-4.54,2.16,0,3.46,1.19,3.7,4.29.46-3.56,2.27-4.29,4.11-4.29,2.97,0,4.46,1.92,4.46,5.48v6.97c0,1.75-.89,2.65-2.43,2.65-1.62,0-2.59-.97-2.59-2.65v-5.75c0-1.46-.38-2.32-1.46-2.32-1.13,0-1.86,1.11-1.86,2.51v5.56c0,1.75-.97,2.65-2.46,2.65-1.62,0-2.59-.97-2.59-2.65v-5.75c0-1.46-.38-2.32-1.51-2.32s-1.78,1.11-1.78,2.65v5.43c0,1.75-.95,2.65-2.51,2.65s-2.57-.89-2.57-2.65Z"/>
        <path class="cls-3" d="M299.19,52.3c-1.78,1.7-3.29,1.54-4.11.59-.78-.86-.92-2.21.24-3.27,2.67-2.43,3.62-5.7,3.62-9.72s-.95-7.29-3.62-9.72c-1.16-1.05-1.03-2.4-.24-3.27.81-.95,2.32-1.11,4.11.59,2.78,2.62,4.43,7.18,4.43,12.4s-1.65,9.78-4.43,12.4Z"/>
      </g>
    </g>
    <g>
      <rect class="cls-1" x="59.79" y="77.44" width="288" height="49.9" rx="24.95" ry="24.95"/>
      <g>
        <path class="cls-3" d="M117.15,104.1c0-4.54,3.29-7.59,7.78-7.59,3.16,0,5.56,1.3,5.56,3.51,0,1.38-.89,2.19-2,2.19-.89,0-1.27-.38-1.76-.73-.38-.27-.86-.57-1.81-.57-1.46,0-2.81.81-2.81,3.32,0,2.19,1.24,3.27,2.84,3.27.86,0,1.4-.32,1.94-.7.41-.3.81-.51,1.49-.51.95.03,1.81.7,1.81,1.97,0,.95-.46,1.67-1.16,2.21-1.03.78-2.65,1.19-4.27,1.19-4.38,0-7.62-2.86-7.62-7.56Z"/>
        <path class="cls-3" d="M132.14,109.01v-9.78c0-1.76.92-2.67,2.57-2.67s2.57.92,2.57,2.67v9.78c0,1.75-.97,2.65-2.57,2.65s-2.57-.89-2.57-2.65ZM132.16,92.45c0-1.73.97-2.62,2.57-2.62s2.65.86,2.65,2.62-1.05,2.59-2.65,2.59-2.57-.84-2.57-2.59Z"/>
        <path class="cls-3" d="M140.02,108.74v-9.24c0-1.95.73-2.84,2.48-2.86,1.16-.03,2.46.41,2.38,2.32l-.08,2.05c.41-3,2.19-4.46,4.73-4.46,3.11,0,4.7,1.92,4.73,5.51l.03,6.67c.03,1.76-1,2.92-2.54,2.92-1.62,0-2.57-1.22-2.57-2.92v-5.48c0-1.4-.57-2.32-1.73-2.32-1.54,0-2.19,1.19-2.32,2.78v5.02c0,1.76-.95,2.92-2.54,2.92s-2.57-1.16-2.57-2.92Z"/>
        <path class="cls-3" d="M156.3,104.15c0-4.48,2.57-7.64,7.18-7.64,3.86,0,6.67,2.38,6.67,6.32,0,1.57-.73,2.59-2.46,2.59h-6.48v.03c.05,1.22.86,2.4,2.65,2.4,1.11,0,1.62-.38,2.35-.89.41-.32.89-.57,1.49-.57,1.24,0,1.86.86,1.86,1.89,0,.81-.3,1.38-.76,1.84-.89.89-2.62,1.57-5,1.57-4.89,0-7.51-2.92-7.51-7.54ZM165.51,103.1c0-1.38-.49-2.81-2.03-2.81-1.62,0-2.19,1.19-2.3,2.81h4.32Z"/>
        <path class="cls-3" d="M172.21,109.01v-9.75c0-1.78.89-2.67,2.43-2.67,1.22,0,1.84.38,2.11,1.08.24.81.27,1.84.27,3.43.51-3.4,2.27-4.54,4.7-4.54,2.16,0,3.46,1.19,3.7,4.29.46-3.56,2.27-4.29,4.11-4.29,2.97,0,4.46,1.92,4.46,5.48v6.97c0,1.75-.89,2.65-2.43,2.65-1.62,0-2.59-.97-2.59-2.65v-5.75c0-1.46-.38-2.32-1.46-2.32-1.13,0-1.86,1.11-1.86,2.51v5.56c0,1.75-.97,2.65-2.46,2.65-1.62,0-2.59-.97-2.59-2.65v-5.75c0-1.46-.38-2.32-1.51-2.32s-1.78,1.11-1.78,2.65v5.43c0,1.75-.95,2.65-2.51,2.65s-2.57-.89-2.57-2.65Z"/>
        <path class="cls-3" d="M207.94,111.66c-1.78,0-3.24-1.13-3.27-3.19-.41,1.84-1.7,3.19-3.92,3.19-2.7,0-4.89-1.67-4.89-4.56s2.16-4.46,4.92-4.46c2.08,0,3.27.84,3.75,1.46l-.03-1.97c0-.97-.62-1.78-1.95-1.81-.89,0-1.4.35-1.89.62-.54.3-1.13.76-2.05.76-.97,0-1.86-.81-1.86-2.16,0-.95.62-1.57,1.27-2,1.11-.73,2.86-1.03,4.21-1.03,5.75,0,6.91,2.62,6.91,6.16v3.59c0,1.03.27,1.4.59,1.67.38.35.78.65.78,1.73,0,1.54-1.24,2-2.59,2ZM204.54,107.15v-1c-.43-.32-1.16-.78-1.97-.78-1.13,0-1.94.65-1.94,1.73s.84,1.62,1.76,1.62c1.03,0,1.81-.62,2.16-1.57Z"/>
        <path class="cls-3" d="M221.55,90.02c1.78-1.7,3.29-1.54,4.1-.59.78.86.92,2.21-.24,3.27-2.67,2.43-3.62,5.67-3.62,9.72s.95,7.29,3.62,9.72c1.16,1.05,1.03,2.4.24,3.27-.81.95-2.32,1.11-4.1-.59-2.78-2.62-4.43-7.21-4.43-12.4s1.65-9.78,4.43-12.4Z"/>
        <path class="cls-3" d="M226.01,104.1c0-4.54,3.29-7.59,7.78-7.59,3.16,0,5.56,1.3,5.56,3.51,0,1.38-.89,2.19-2,2.19-.89,0-1.27-.38-1.76-.73-.38-.27-.86-.57-1.81-.57-1.46,0-2.81.81-2.81,3.32,0,2.19,1.24,3.27,2.84,3.27.86,0,1.4-.32,1.94-.7.41-.3.81-.51,1.49-.51.95.03,1.81.7,1.81,1.97,0,.95-.46,1.67-1.16,2.21-1.03.78-2.65,1.19-4.27,1.19-4.38,0-7.62-2.86-7.62-7.56Z"/>
        <path class="cls-3" d="M240.94,106.07v-6.78c0-1.78.97-2.73,2.51-2.73s2.49.95,2.49,2.67v5.64c0,1.49.46,2.4,1.73,2.4,1.16,0,1.97-1.03,1.97-2.84v-5.21c0-1.73.86-2.67,2.46-2.67s2.51.95,2.51,2.67v9.72c0,1.76-.65,2.7-2.19,2.7-1.75,0-2.32-1-2.35-2.43l-.05-1.89c-.35,2.92-2.13,4.32-4.35,4.32-2.84,0-4.73-1.92-4.73-5.59Z"/>
        <path class="cls-3" d="M258.3,106.8v-6.1h-.4c-1.3,0-1.84-.51-1.84-2s.59-1.97,1.84-1.97h.4v-1.76c0-2.35.92-3.05,2.57-3.05,1.54,0,2.13.84,2.13,2.43v2.38h1.73c1.08,0,1.75.54,1.75,1.97s-.73,2-1.75,2h-1.73l-.03,5.38c0,.86.3,1.22.81,1.22s1.03-.38,1.75-.38c.84,0,1.81.65,1.81,2.08,0,2-2.4,2.67-4.19,2.67-3.05,0-4.86-1.78-4.86-4.86Z"/>
        <path class="cls-3" d="M267.92,104.15c0-4.48,2.57-7.64,7.18-7.64,3.86,0,6.67,2.38,6.67,6.32,0,1.57-.73,2.59-2.46,2.59h-6.48v.03c.05,1.22.86,2.4,2.65,2.4,1.11,0,1.62-.38,2.35-.89.41-.32.89-.57,1.49-.57,1.24,0,1.86.86,1.86,1.89,0,.81-.3,1.38-.76,1.84-.89.89-2.62,1.57-5,1.57-4.89,0-7.51-2.92-7.51-7.54ZM277.13,103.1c0-1.38-.49-2.81-2.03-2.81-1.62,0-2.19,1.19-2.3,2.81h4.32Z"/>
        <path class="cls-3" d="M286.5,114.82c-1.78,1.7-3.29,1.54-4.11.59-.78-.86-.92-2.21.24-3.27,2.67-2.43,3.62-5.7,3.62-9.72s-.95-7.29-3.62-9.72c-1.16-1.05-1.03-2.4-.24-3.27.81-.95,2.32-1.11,4.11.59,2.78,2.62,4.43,7.18,4.43,12.4s-1.65,9.78-4.43,12.4Z"/>
      </g>
    </g>
    <g>
      <rect class="cls-1" x="58.79" y="139.44" width="288" height="49.9" rx="24.95" ry="24.95"/>
      <g>
        <path class="cls-3" d="M89.55,173.16c-1.08-.51-1.92-1.32-1.89-2.35,0-1,.73-2.05,1.86-2.05.73,0,1.32.35,1.97.7.84.41,1.62.76,2.57.76.78,0,1.51-.27,1.51-1,0-.86-1.13-.92-3.24-1.43-2.13-.54-4.32-1.38-4.32-4.32s2.51-4.65,6.21-4.65c1.13,0,2.51.22,3.62.76.97.51,1.65,1.21,1.65,2.24s-.62,2.03-1.86,2.03c-.78,0-1.27-.32-1.86-.65-.59-.3-1.13-.57-1.92-.57-.84,0-1.32.32-1.32.89,0,.84,1.19,1.05,2.54,1.32,2.21.46,5.21,1.08,5.21,4.43s-3.48,4.67-6.62,4.67c-1.08,0-2.75-.13-4.1-.78Z"/>
        <path class="cls-3" d="M103.06,169.08v-6.1h-.4c-1.3,0-1.84-.51-1.84-2s.59-1.97,1.84-1.97h.4v-1.76c0-2.35.92-3.05,2.57-3.05,1.54,0,2.13.84,2.13,2.43v2.38h1.73c1.08,0,1.75.54,1.75,1.97s-.73,2-1.75,2h-1.73l-.03,5.37c0,.86.3,1.22.81,1.22s1.03-.38,1.75-.38c.84,0,1.81.65,1.81,2.08,0,2-2.4,2.67-4.19,2.67-3.05,0-4.86-1.78-4.86-4.86Z"/>
        <path class="cls-3" d="M124.99,173.94c-1.78,0-3.24-1.13-3.27-3.19-.41,1.84-1.7,3.19-3.92,3.19-2.7,0-4.89-1.67-4.89-4.56s2.16-4.46,4.92-4.46c2.08,0,3.27.84,3.75,1.46l-.03-1.97c0-.97-.62-1.78-1.95-1.81-.89,0-1.4.35-1.89.62-.54.3-1.13.76-2.05.76-.97,0-1.86-.81-1.86-2.16,0-.95.62-1.57,1.27-2,1.11-.73,2.86-1.03,4.21-1.03,5.75,0,6.91,2.62,6.91,6.16v3.59c0,1.03.27,1.4.59,1.67.38.35.78.65.78,1.73,0,1.54-1.24,2-2.59,2ZM121.58,169.43v-1c-.43-.32-1.16-.78-1.97-.78-1.13,0-1.94.65-1.94,1.73s.84,1.62,1.76,1.62c1.03,0,1.81-.62,2.16-1.57Z"/>
        <path class="cls-3" d="M130.36,177.7c0-.84.41-1.65,1.08-2.38.78-.89,2.03-1.75,3.86-2.08-2.3-.05-3.11-.54-4-2.3-.41-.84-.89-1.94-1.67-3.89-.92-2.3-1.89-4.35-1.89-5.62,0-1.46,1.03-2.65,2.81-2.65,1.49,0,2.27.76,2.7,2.65.27,1.05.65,2.92,1.16,5.21.35,1.57.68,3,.86,4.19.16-1.16.38-2.57.7-4.08.35-1.94.59-3.38.95-4.81.35-1.78.92-3.16,2.86-3.16,1.54,0,2.67.86,2.67,2.57s-1.16,4-1.92,5.83l-3.02,7c-.59,1.35-1.46,3.54-2.4,4.67-.59.78-1.43,1.22-2.35,1.19-1.3-.03-2.4-1.05-2.4-2.35Z"/>
        <path class="cls-3" d="M149.8,171.3v-9.78c0-1.76.92-2.67,2.57-2.67s2.57.92,2.57,2.67v9.78c0,1.75-.97,2.65-2.57,2.65s-2.57-.89-2.57-2.65ZM149.83,154.74c0-1.73.97-2.62,2.57-2.62s2.65.86,2.65,2.62-1.05,2.59-2.65,2.59-2.57-.84-2.57-2.59Z"/>
        <path class="cls-3" d="M157.69,171.03v-9.24c0-1.95.73-2.84,2.48-2.86,1.16-.03,2.46.41,2.38,2.32l-.08,2.05c.41-3,2.19-4.46,4.73-4.46,3.11,0,4.7,1.92,4.73,5.51l.03,6.67c.03,1.76-1,2.92-2.54,2.92-1.62,0-2.57-1.22-2.57-2.92v-5.48c0-1.4-.57-2.32-1.73-2.32-1.54,0-2.19,1.19-2.32,2.78v5.02c0,1.76-.95,2.92-2.54,2.92s-2.57-1.16-2.57-2.92Z"/>
        <path class="cls-3" d="M191.61,173.94c-1.78,0-3.24-1.13-3.27-3.19-.41,1.84-1.7,3.19-3.92,3.19-2.7,0-4.89-1.67-4.89-4.56s2.16-4.46,4.92-4.46c2.08,0,3.27.84,3.75,1.46l-.03-1.97c0-.97-.62-1.78-1.95-1.81-.89,0-1.4.35-1.89.62-.54.3-1.13.76-2.05.76-.97,0-1.86-.81-1.86-2.16,0-.95.62-1.57,1.27-2,1.11-.73,2.86-1.03,4.21-1.03,5.75,0,6.91,2.62,6.91,6.16v3.59c0,1.03.27,1.4.59,1.67.38.35.78.65.78,1.73,0,1.54-1.24,2-2.59,2ZM188.2,169.43v-1c-.43-.32-1.16-.78-1.97-.78-1.13,0-1.94.65-1.94,1.73s.84,1.62,1.76,1.62c1.03,0,1.81-.62,2.16-1.57Z"/>
        <path class="cls-3" d="M195.66,171.03v-9.24c0-1.95.73-2.84,2.48-2.86,1.16-.03,2.46.41,2.38,2.32l-.08,2.05c.41-3,2.19-4.46,4.73-4.46,3.11,0,4.7,1.92,4.73,5.51l.03,6.67c.03,1.76-1,2.92-2.54,2.92-1.62,0-2.57-1.22-2.57-2.92v-5.48c0-1.4-.57-2.32-1.73-2.32-1.54,0-2.19,1.19-2.32,2.78v5.02c0,1.76-.95,2.92-2.54,2.92s-2.57-1.16-2.57-2.92Z"/>
        <path class="cls-3" d="M212.02,166.41c0-4.21,2.19-7.62,5.78-7.62,1.65,0,3.19.67,3.89,2.08v-6.13c0-1.75,1-2.65,2.57-2.65s2.51.92,2.51,2.73v16.61c0,1.84-.97,2.51-2.51,2.51s-2.57-.86-2.57-2.67v-.73c-.46,2.24-2.24,3.4-4.1,3.4-3.4,0-5.56-2.84-5.56-7.54ZM219.45,170.08c1.3,0,2.03-.73,2.24-1.35v-4.38c-.13-.92-.95-1.57-2.24-1.57-1.59,0-2.24,1.59-2.24,3.62,0,2.27.68,3.67,2.24,3.67Z"/>
        <path class="cls-3" d="M234.41,166.38c0-4.54,3.29-7.59,7.78-7.59,3.16,0,5.56,1.3,5.56,3.51,0,1.38-.89,2.19-2,2.19-.89,0-1.27-.38-1.76-.73-.38-.27-.86-.57-1.81-.57-1.46,0-2.81.81-2.81,3.32,0,2.19,1.24,3.27,2.84,3.27.86,0,1.4-.32,1.94-.7.41-.3.81-.51,1.49-.51.95.03,1.81.7,1.81,1.97,0,.95-.46,1.67-1.16,2.21-1.03.78-2.65,1.19-4.27,1.19-4.38,0-7.62-2.86-7.62-7.56Z"/>
        <path class="cls-3" d="M249.34,168.35v-6.78c0-1.78.97-2.73,2.51-2.73s2.48.95,2.48,2.67v5.64c0,1.49.46,2.4,1.73,2.4,1.16,0,1.97-1.03,1.97-2.84v-5.21c0-1.73.86-2.67,2.46-2.67s2.51.95,2.51,2.67v9.72c0,1.76-.65,2.7-2.19,2.7-1.75,0-2.32-1-2.35-2.43l-.05-1.89c-.35,2.92-2.13,4.32-4.35,4.32-2.84,0-4.73-1.92-4.73-5.59Z"/>
        <path class="cls-3" d="M265.14,166.41c0-4.21,2.19-7.62,5.78-7.62,1.65,0,3.19.67,3.89,2.08v-6.13c0-1.75,1-2.65,2.57-2.65s2.51.92,2.51,2.73v16.61c0,1.84-.97,2.51-2.51,2.51s-2.57-.86-2.57-2.67v-.73c-.46,2.24-2.24,3.4-4.1,3.4-3.4,0-5.56-2.84-5.56-7.54ZM272.57,170.08c1.3,0,2.03-.73,2.24-1.35v-4.38c-.13-.92-.95-1.57-2.24-1.57-1.59,0-2.24,1.59-2.24,3.62,0,2.27.68,3.67,2.24,3.67Z"/>
        <path class="cls-3" d="M282.02,166.41c0-4.21,2.19-7.62,5.78-7.62,1.65,0,3.19.67,3.89,2.08v-6.13c0-1.75,1-2.65,2.57-2.65s2.51.92,2.51,2.73v16.61c0,1.84-.97,2.51-2.51,2.51s-2.57-.86-2.57-2.67v-.73c-.46,2.24-2.24,3.4-4.1,3.4-3.4,0-5.56-2.84-5.56-7.54ZM289.45,170.08c1.3,0,2.03-.73,2.24-1.35v-4.38c-.13-.92-.95-1.57-2.24-1.57-1.59,0-2.24,1.59-2.24,3.62,0,2.27.68,3.67,2.24,3.67Z"/>
        <path class="cls-3" d="M299.52,171.3v-16.56c0-1.75,1-2.65,2.54-2.65s2.51.92,2.51,2.73v16.61c0,1.84-.95,2.51-2.51,2.51s-2.54-.89-2.54-2.65Z"/>
        <path class="cls-3" d="M306.68,166.44c0-4.48,2.57-7.64,7.18-7.64,3.86,0,6.67,2.38,6.67,6.32,0,1.57-.73,2.59-2.46,2.59h-6.48v.03c.05,1.22.86,2.4,2.65,2.4,1.11,0,1.62-.38,2.35-.89.41-.32.89-.57,1.49-.57,1.24,0,1.86.86,1.86,1.89,0,.81-.3,1.38-.76,1.84-.89.89-2.62,1.57-5,1.57-4.89,0-7.51-2.92-7.51-7.54ZM315.89,165.38c0-1.38-.49-2.81-2.03-2.81-1.62,0-2.19,1.19-2.3,2.81h4.32Z"/>
      </g>
    </g>
    <g>
      <rect class="cls-1" x="57.79" y="201.44" width="288" height="49.9" rx="24.95" ry="24.95"/>
      <g>
        <path class="cls-3" d="M98.79,235.76c-1.08-.51-1.92-1.32-1.89-2.35,0-1,.73-2.05,1.86-2.05.73,0,1.32.35,1.97.7.84.41,1.62.76,2.57.76.78,0,1.51-.27,1.51-1,0-.86-1.13-.92-3.24-1.43-2.13-.54-4.32-1.38-4.32-4.32s2.51-4.65,6.21-4.65c1.13,0,2.51.22,3.62.76.97.51,1.65,1.21,1.65,2.24s-.62,2.03-1.86,2.03c-.78,0-1.27-.32-1.86-.65-.59-.3-1.13-.57-1.92-.57-.84,0-1.32.32-1.32.89,0,.84,1.19,1.05,2.54,1.32,2.21.46,5.21,1.08,5.21,4.43s-3.48,4.67-6.62,4.67c-1.08,0-2.75-.13-4.1-.78Z"/>
        <path class="cls-3" d="M110.84,228.95c0-4.94,3.43-7.56,7.67-7.56s7.51,2.62,7.51,7.56-3.27,7.59-7.59,7.59-7.59-2.62-7.59-7.59ZM121.05,228.95c0-2.62-1.05-3.62-2.59-3.62s-2.65,1.08-2.65,3.62c0,2.67,1.16,3.67,2.65,3.67s2.59-1.11,2.59-3.67Z"/>
        <path class="cls-3" d="M128.09,233.9v-9.75c0-1.78.89-2.67,2.43-2.67,1.22,0,1.84.38,2.11,1.08.24.81.27,1.84.27,3.43.51-3.4,2.27-4.54,4.7-4.54,2.16,0,3.46,1.19,3.7,4.29.46-3.56,2.27-4.29,4.11-4.29,2.97,0,4.46,1.92,4.46,5.48v6.97c0,1.75-.89,2.65-2.43,2.65-1.62,0-2.59-.97-2.59-2.65v-5.75c0-1.46-.38-2.32-1.46-2.32-1.13,0-1.86,1.11-1.86,2.51v5.56c0,1.75-.97,2.65-2.46,2.65-1.62,0-2.59-.97-2.59-2.65v-5.75c0-1.46-.38-2.32-1.51-2.32s-1.78,1.11-1.78,2.65v5.43c0,1.75-.95,2.65-2.51,2.65s-2.57-.89-2.57-2.65Z"/>
        <path class="cls-3" d="M151.89,229.03c0-4.48,2.57-7.64,7.18-7.64,3.86,0,6.67,2.38,6.67,6.32,0,1.57-.73,2.59-2.46,2.59h-6.48v.03c.05,1.22.86,2.4,2.65,2.4,1.11,0,1.62-.38,2.35-.89.41-.32.89-.57,1.49-.57,1.24,0,1.86.86,1.86,1.89,0,.81-.3,1.38-.76,1.84-.89.89-2.62,1.57-5,1.57-4.89,0-7.51-2.92-7.51-7.54ZM161.1,227.98c0-1.38-.49-2.81-2.03-2.81-1.62,0-2.19,1.19-2.3,2.81h4.32Z"/>
        <path class="cls-3" d="M168.74,231.68v-6.1h-.4c-1.3,0-1.84-.51-1.84-2s.59-1.97,1.84-1.97h.4v-1.76c0-2.35.92-3.05,2.57-3.05,1.54,0,2.13.84,2.13,2.43v2.38h1.73c1.08,0,1.75.54,1.75,1.97s-.73,2-1.75,2h-1.73l-.03,5.38c0,.86.3,1.22.81,1.22s1.03-.38,1.75-.38c.84,0,1.81.65,1.81,2.08,0,2-2.4,2.67-4.19,2.67-3.05,0-4.86-1.78-4.86-4.86Z"/>
        <path class="cls-3" d="M179.27,233.71v-16.34c0-1.76.97-2.67,2.51-2.67,1.76,0,2.54.92,2.54,2.67v5.02c0,1.08-.11,2.19-.19,3.27.35-2.78,1.94-4.21,4.65-4.21,3.08,0,4.67,1.92,4.7,5.51l.03,6.72c.03,1.84-.97,2.86-2.54,2.86s-2.57-1.08-2.57-2.86v-5.54c0-1.4-.68-2.32-1.81-2.32-1.35,0-2.11,1.41-2.27,2.73v5.19c0,1.75-.95,2.81-2.59,2.81-1.51,0-2.46-1.05-2.46-2.84Z"/>
        <path class="cls-3" d="M196.18,233.9v-9.78c0-1.76.92-2.67,2.57-2.67s2.57.92,2.57,2.67v9.78c0,1.75-.97,2.65-2.57,2.65s-2.57-.89-2.57-2.65ZM196.2,217.34c0-1.73.97-2.62,2.57-2.62s2.65.86,2.65,2.62-1.05,2.59-2.65,2.59-2.57-.84-2.57-2.59Z"/>
        <path class="cls-3" d="M204.06,233.63v-9.24c0-1.95.73-2.84,2.48-2.86,1.16-.03,2.46.41,2.38,2.32l-.08,2.05c.41-3,2.19-4.46,4.73-4.46,3.11,0,4.7,1.92,4.73,5.51l.03,6.67c.03,1.76-1,2.92-2.54,2.92-1.62,0-2.57-1.22-2.57-2.92v-5.48c0-1.4-.57-2.32-1.73-2.32-1.54,0-2.19,1.19-2.32,2.78v5.02c0,1.76-.95,2.92-2.54,2.92s-2.57-1.16-2.57-2.92Z"/>
        <path class="cls-3" d="M221.1,238.68c-.03-1.11.62-2.13,1.89-2.13.78-.03,1.19.32,1.76.78.54.43,1.21.89,2.48.89,1.76,0,2.73-.86,2.73-2.92v-2.92c-.41,2.05-1.89,3.27-3.81,3.27-3.59,0-5.78-2.81-5.78-6.94,0-3.86,2.3-7.27,5.94-7.27,1.75,0,3.19.76,3.75,2,.05-.35.16-.65.27-.92.4-.84,1.27-1.08,2.03-1.08,1.62,0,2.62.92,2.62,2.65v10.67c0,4.75-2.46,7.45-7.7,7.45-3.86,0-6.1-1.65-6.18-3.54ZM229.96,230.79v-3.92c-.11-.51-.67-1.49-2.13-1.49-1.75,0-2.46,1.65-2.46,3.4s.73,3.29,2.46,3.29c.95,0,1.95-.49,2.13-1.3Z"/>
        <path class="cls-3" d="M242.6,229.03c0-4.48,2.57-7.64,7.18-7.64,3.86,0,6.67,2.38,6.67,6.32,0,1.57-.73,2.59-2.46,2.59h-6.48v.03c.05,1.22.86,2.4,2.65,2.4,1.11,0,1.62-.38,2.35-.89.41-.32.89-.57,1.49-.57,1.24,0,1.86.86,1.86,1.89,0,.81-.3,1.38-.76,1.84-.89.89-2.62,1.57-5,1.57-4.89,0-7.51-2.92-7.51-7.54ZM251.81,227.98c0-1.38-.49-2.81-2.03-2.81-1.62,0-2.19,1.19-2.3,2.81h4.32Z"/>
        <path class="cls-3" d="M258.5,233.9v-16.56c0-1.75,1-2.65,2.54-2.65s2.51.92,2.51,2.73v16.61c0,1.84-.95,2.51-2.51,2.51s-2.54-.89-2.54-2.65Z"/>
        <path class="cls-3" d="M267.52,235.76c-1.08-.51-1.92-1.32-1.89-2.35,0-1,.73-2.05,1.86-2.05.73,0,1.32.35,1.97.7.84.41,1.62.76,2.57.76.78,0,1.51-.27,1.51-1,0-.86-1.13-.92-3.24-1.43-2.13-.54-4.32-1.38-4.32-4.32s2.51-4.65,6.21-4.65c1.13,0,2.51.22,3.62.76.97.51,1.65,1.21,1.65,2.24s-.62,2.03-1.86,2.03c-.78,0-1.27-.32-1.86-.65-.59-.3-1.13-.57-1.92-.57-.84,0-1.32.32-1.32.89,0,.84,1.19,1.05,2.54,1.32,2.21.46,5.21,1.08,5.21,4.43s-3.48,4.67-6.62,4.67c-1.08,0-2.75-.13-4.1-.78Z"/>
        <path class="cls-3" d="M279.57,229.03c0-4.48,2.57-7.64,7.18-7.64,3.86,0,6.67,2.38,6.67,6.32,0,1.57-.73,2.59-2.46,2.59h-6.48v.03c.05,1.22.86,2.4,2.65,2.4,1.11,0,1.62-.38,2.35-.89.41-.32.89-.57,1.49-.57,1.24,0,1.86.86,1.86,1.89,0,.81-.3,1.38-.76,1.84-.89.89-2.62,1.57-5,1.57-4.89,0-7.51-2.92-7.51-7.54ZM288.78,227.98c0-1.38-.49-2.81-2.03-2.81-1.62,0-2.19,1.19-2.3,2.81h4.32Z"/>
        <path class="cls-3" d="M302.01,227.14l-.92-9.7c-.24-2.24.65-3.57,2.84-3.57s3.05,1.16,2.81,3.57l-.86,9.7c-.13,1.4-.59,2.35-1.94,2.35s-1.78-1.03-1.92-2.35ZM301.44,234.14c0-1.67.92-2.51,2.49-2.54,1.51,0,2.48.86,2.48,2.54s-.97,2.46-2.48,2.46-2.49-.84-2.49-2.46Z"/>
      </g>
    </g>
  </g>
</svg>