<?xml version="1.0" encoding="UTF-8"?>
<svg id="Layer_2" data-name="Layer 2" xmlns="http://www.w3.org/2000/svg" viewBox="0 0 288 49.9">
  <defs>
    <style>
      .cls-1 {
        fill: #ffb3a5;
        opacity: .5;
      }

      .cls-2 {
        fill: #5e5473;
      }
    </style>
  </defs>
  <g id="Layer_1-2" data-name="Layer 1">
    <g>
      <rect class="cls-1" y="0" width="288" height="49.9" rx="24.95" ry="24.95"/>
      <g>
        <path class="cls-2" d="M101.07,31.21v-9.24c0-1.95.73-2.84,2.49-2.86,1.16-.03,2.46.41,2.38,2.32l-.08,2.05c.4-3,2.19-4.46,4.73-4.46,3.11,0,4.7,1.92,4.73,5.51l.03,6.67c.03,1.76-1,2.92-2.54,2.92-1.62,0-2.57-1.22-2.57-2.92v-5.48c0-1.4-.57-2.32-1.73-2.32-1.54,0-2.19,1.19-2.32,2.78v5.02c0,1.76-.95,2.92-2.54,2.92s-2.57-1.16-2.57-2.92Z"/>
        <path class="cls-2" d="M117.33,26.54c0-4.94,3.43-7.56,7.67-7.56s7.51,2.62,7.51,7.56-3.27,7.59-7.59,7.59-7.59-2.62-7.59-7.59ZM127.54,26.54c0-2.62-1.05-3.62-2.59-3.62s-2.65,1.08-2.65,3.62c0,2.67,1.16,3.67,2.65,3.67s2.59-1.11,2.59-3.67Z"/>
        <path class="cls-2" d="M133.51,31.64c0-1.73.95-2.59,2.59-2.59,1.62-.03,2.59.86,2.59,2.59s-.97,2.59-2.59,2.59-2.59-.86-2.59-2.59Z"/>
        <path class="cls-2" d="M139.83,31.64c0-1.73.95-2.59,2.59-2.59,1.62-.03,2.59.86,2.59,2.59s-.97,2.59-2.59,2.59-2.59-.86-2.59-2.59Z"/>
        <path class="cls-2" d="M146.15,31.64c0-1.73.95-2.59,2.59-2.59,1.62-.03,2.59.86,2.59,2.59s-.97,2.59-2.59,2.59-2.59-.86-2.59-2.59Z"/>
        <path class="cls-2" d="M152.47,31.64c0-1.73.95-2.59,2.59-2.59,1.62-.03,2.59.86,2.59,2.59s-.97,2.59-2.59,2.59-2.59-.86-2.59-2.59Z"/>
        <path class="cls-2" d="M158.79,31.64c0-1.73.95-2.59,2.59-2.59,1.62-.03,2.59.86,2.59,2.59s-.97,2.59-2.59,2.59-2.59-.86-2.59-2.59Z"/>
        <path class="cls-2" d="M171.48,22.21c0-1.73.95-2.59,2.59-2.59,1.62-.03,2.59.86,2.59,2.59s-.97,2.59-2.59,2.59-2.59-.86-2.59-2.59ZM171.48,31.64c0-1.73.95-2.59,2.59-2.59,1.62-.03,2.59.86,2.59,2.59s-.97,2.59-2.59,2.59-2.59-.86-2.59-2.59Z"/>
        <path class="cls-2" d="M182.9,12.49c1.78-1.7,3.29-1.54,4.11-.59.78.86.92,2.21-.24,3.27-2.67,2.43-3.62,5.67-3.62,9.72s.95,7.29,3.62,9.72c1.16,1.05,1.03,2.4.24,3.27-.81.95-2.32,1.11-4.11-.59-2.78-2.62-4.43-7.21-4.43-12.4s1.65-9.78,4.43-12.4Z"/>
      </g>
    </g>
  </g>
</svg>