<?xml version="1.0" encoding="UTF-8"?>
<svg id="Layer_2" data-name="Layer 2" xmlns="http://www.w3.org/2000/svg" viewBox="0 0 1202.31 196.17">
  <defs>
    <style>
      .cls-1 {
        letter-spacing: -.09em;
      }

      .cls-2 {
        letter-spacing: 0em;
      }

      .cls-3 {
        font-size: 64.38px;
      }

      .cls-3, .cls-4, .cls-5 {
        fill: #ffb3a5;
      }

      .cls-3, .cls-5 {
        font-family: Daydream, Daydream;
      }

      .cls-6 {
        letter-spacing: -.09em;
      }

      .cls-5 {
        font-size: 27.01px;
      }

      .cls-7 {
        letter-spacing: -.09em;
      }

      .cls-8 {
        letter-spacing: -.09em;
      }
    </style>
  </defs>
  <g id="Layer_2-2" data-name="Layer 2">
    <g>
      <text class="cls-5" transform="translate(193.12 83.23)"><tspan x="0" y="0">OMG </tspan><tspan class="cls-1" x="103.8" y="0">Y</tspan><tspan x="129.12" y="0">AY u wanna be </tspan><tspan class="cls-6" x="465.85" y="0">m</tspan><tspan x="498.76" y="0">y </tspan><tspan class="cls-6" x="534.2" y="0">v</tspan><tspan x="562.05" y="0">al</tspan><tspan class="cls-8" x="612.69" y="0">e</tspan><tspan x="638.01" y="0">ntine?</tspan></text>
      <polygon class="cls-4" points="51.11 112.72 50.82 112.72 50.53 112.72 50.24 112.72 49.94 112.72 49.65 112.72 49.36 112.72 49.06 112.72 48.77 112.72 48.48 112.72 48.48 112.43 48.48 112.14 48.48 111.84 48.48 111.55 48.48 111.26 48.48 110.96 48.48 110.67 48.48 110.38 48.48 110.09 48.48 109.79 48.19 109.79 47.89 109.79 47.6 109.79 47.31 109.79 47.01 109.79 46.72 109.79 46.43 109.79 46.14 109.79 45.84 109.79 45.55 109.79 45.26 109.79 44.96 109.79 44.67 109.79 44.38 109.79 44.09 109.79 43.79 109.79 43.5 109.79 43.21 109.79 42.91 109.79 42.62 109.79 42.33 109.79 42.04 109.79 41.74 109.79 41.45 109.79 41.16 109.79 40.86 109.79 40.57 109.79 40.28 109.79 39.99 109.79 39.69 109.79 39.4 109.79 39.11 109.79 38.81 109.79 38.52 109.79 38.23 109.79 37.94 109.79 37.64 109.79 37.35 109.79 37.06 109.79 36.76 109.79 36.47 109.79 36.18 109.79 35.89 109.79 35.59 109.79 35.3 109.79 35.01 109.79 34.71 109.79 34.42 109.79 34.13 109.79 33.84 109.79 33.84 110.09 33.84 110.38 33.84 110.67 33.84 110.96 33.84 111.26 33.84 111.55 33.84 111.84 33.84 112.14 33.84 112.43 33.84 112.72 33.54 112.72 33.25 112.72 32.96 112.72 32.66 112.72 32.37 112.72 32.08 112.72 31.79 112.72 31.49 112.72 31.2 112.72 30.91 112.72 30.91 113.01 30.91 113.31 30.91 113.6 30.91 113.89 30.91 114.19 30.91 114.48 30.91 114.77 30.91 115.06 30.91 115.36 30.91 115.65 30.61 115.65 30.32 115.65 30.03 115.65 29.74 115.65 29.44 115.65 29.15 115.65 28.86 115.65 28.56 115.65 28.27 115.65 27.98 115.65 27.98 115.36 27.98 115.06 27.98 114.77 27.98 114.48 27.98 114.19 27.98 113.89 27.98 113.6 27.98 113.31 27.98 113.01 27.98 112.72 27.69 112.72 27.39 112.72 27.1 112.72 26.81 112.72 26.51 112.72 26.22 112.72 25.93 112.72 25.64 112.72 25.34 112.72 25.05 112.72 24.76 112.72 24.46 112.72 24.17 112.72 23.88 112.72 23.59 112.72 23.29 112.72 23 112.72 22.71 112.72 22.41 112.72 22.12 112.72 22.12 112.43 22.12 112.14 22.12 111.84 22.12 111.55 22.12 111.26 22.12 110.96 22.12 110.67 22.12 110.38 22.12 110.09 22.12 109.79 21.83 109.79 21.54 109.79 21.24 109.79 20.95 109.79 20.66 109.79 20.36 109.79 20.07 109.79 19.78 109.79 19.49 109.79 19.19 109.79 18.9 109.79 18.61 109.79 18.31 109.79 18.02 109.79 17.73 109.79 17.44 109.79 17.14 109.79 16.85 109.79 16.56 109.79 16.26 109.79 15.97 109.79 15.68 109.79 15.39 109.79 15.09 109.79 14.8 109.79 14.51 109.79 14.21 109.79 13.92 109.79 13.63 109.79 13.34 109.79 13.34 110.09 13.34 110.38 13.34 110.67 13.34 110.96 13.34 111.26 13.34 111.55 13.34 111.84 13.34 112.14 13.34 112.43 13.34 112.72 13.04 112.72 12.75 112.72 12.46 112.72 12.16 112.72 11.87 112.72 11.58 112.72 11.29 112.72 10.99 112.72 10.7 112.72 10.41 112.72 10.41 113.01 10.41 113.31 10.41 113.6 10.41 113.89 10.41 114.19 10.41 114.48 10.41 114.77 10.41 115.06 10.41 115.36 10.41 115.65 10.41 115.94 10.41 116.24 10.41 116.53 10.41 116.82 10.41 117.11 10.41 117.41 10.41 117.7 10.41 117.99 10.41 118.29 10.41 118.58 10.41 118.87 10.41 119.16 10.41 119.46 10.41 119.75 10.41 120.04 10.41 120.34 10.41 120.63 10.41 120.92 10.41 121.21 10.41 121.51 10.7 121.51 10.99 121.51 11.29 121.51 11.58 121.51 11.87 121.51 12.16 121.51 12.46 121.51 12.75 121.51 13.04 121.51 13.34 121.51 13.34 121.8 13.34 122.09 13.34 122.39 13.34 122.68 13.34 122.97 13.34 123.26 13.34 123.56 13.34 123.85 13.34 124.14 13.34 124.44 13.34 124.73 13.34 125.02 13.34 125.31 13.34 125.61 13.34 125.9 13.34 126.19 13.34 126.49 13.34 126.78 13.34 127.07 13.34 127.36 13.63 127.36 13.92 127.36 14.21 127.36 14.51 127.36 14.8 127.36 15.09 127.36 15.39 127.36 15.68 127.36 15.97 127.36 16.26 127.36 16.26 127.66 16.26 127.95 16.26 128.24 16.26 128.54 16.26 128.83 16.26 129.12 16.26 129.41 16.26 129.71 16.26 130 16.26 130.29 16.56 130.29 16.85 130.29 17.14 130.29 17.44 130.29 17.73 130.29 18.02 130.29 18.31 130.29 18.61 130.29 18.9 130.29 19.19 130.29 19.49 130.29 19.78 130.29 20.07 130.29 20.36 130.29 20.66 130.29 20.95 130.29 21.24 130.29 21.54 130.29 21.83 130.29 22.12 130.29 22.12 130.59 22.12 130.88 22.12 131.17 22.12 131.46 22.12 131.76 22.12 132.05 22.12 132.34 22.12 132.64 22.12 132.93 22.12 133.22 22.41 133.22 22.71 133.22 23 133.22 23.29 133.22 23.59 133.22 23.88 133.22 24.17 133.22 24.46 133.22 24.76 133.22 25.05 133.22 25.05 133.51 25.05 133.81 25.05 134.1 25.05 134.39 25.05 134.69 25.05 134.98 25.05 135.27 25.05 135.56 25.05 135.86 25.05 136.15 25.05 136.44 25.05 136.74 25.05 137.03 25.05 137.32 25.05 137.61 25.05 137.91 25.05 138.2 25.05 138.49 25.05 138.79 25.05 139.08 25.34 139.08 25.64 139.08 25.93 139.08 26.22 139.08 26.51 139.08 26.81 139.08 27.1 139.08 27.39 139.08 27.69 139.08 27.98 139.08 27.98 139.37 27.98 139.66 27.98 139.96 27.98 140.25 27.98 140.54 27.98 140.84 27.98 141.13 27.98 141.42 27.98 141.71 27.98 142.01 28.27 142.01 28.56 142.01 28.86 142.01 29.15 142.01 29.44 142.01 29.74 142.01 30.03 142.01 30.32 142.01 30.61 142.01 30.91 142.01 31.2 142.01 31.49 142.01 31.79 142.01 32.08 142.01 32.37 142.01 32.66 142.01 32.96 142.01 33.25 142.01 33.54 142.01 33.84 142.01 33.84 141.71 33.84 141.42 33.84 141.13 33.84 140.84 33.84 140.54 33.84 140.25 33.84 139.96 33.84 139.66 33.84 139.37 33.84 139.08 34.13 139.08 34.42 139.08 34.71 139.08 35.01 139.08 35.3 139.08 35.59 139.08 35.89 139.08 36.18 139.08 36.47 139.08 36.76 139.08 36.76 138.79 36.76 138.49 36.76 138.2 36.76 137.91 36.76 137.61 36.76 137.32 36.76 137.03 36.76 136.74 36.76 136.44 36.76 136.15 36.76 135.86 36.76 135.56 36.76 135.27 36.76 134.98 36.76 134.69 36.76 134.39 36.76 134.1 36.76 133.81 36.76 133.51 36.76 133.22 37.06 133.22 37.35 133.22 37.64 133.22 37.94 133.22 38.23 133.22 38.52 133.22 38.81 133.22 39.11 133.22 39.4 133.22 39.69 133.22 39.69 132.93 39.69 132.64 39.69 132.34 39.69 132.05 39.69 131.76 39.69 131.46 39.69 131.17 39.69 130.88 39.69 130.59 39.69 130.29 39.99 130.29 40.28 130.29 40.57 130.29 40.86 130.29 41.16 130.29 41.45 130.29 41.74 130.29 42.04 130.29 42.33 130.29 42.62 130.29 42.62 130 42.62 129.71 42.62 129.41 42.62 129.12 42.62 128.83 42.62 128.54 42.62 128.24 42.62 127.95 42.62 127.66 42.62 127.36 42.91 127.36 43.21 127.36 43.5 127.36 43.79 127.36 44.09 127.36 44.38 127.36 44.67 127.36 44.96 127.36 45.26 127.36 45.55 127.36 45.55 127.07 45.55 126.78 45.55 126.49 45.55 126.19 45.55 125.9 45.55 125.61 45.55 125.31 45.55 125.02 45.55 124.73 45.55 124.44 45.84 124.44 46.14 124.44 46.43 124.44 46.72 124.44 47.01 124.44 47.31 124.44 47.6 124.44 47.89 124.44 48.19 124.44 48.48 124.44 48.48 124.14 48.48 123.85 48.48 123.56 48.48 123.26 48.48 122.97 48.48 122.68 48.48 122.39 48.48 122.09 48.48 121.8 48.48 121.51 48.48 121.21 48.48 120.92 48.48 120.63 48.48 120.34 48.48 120.04 48.48 119.75 48.48 119.46 48.48 119.16 48.48 118.87 48.48 118.58 48.77 118.58 49.06 118.58 49.36 118.58 49.65 118.58 49.94 118.58 50.24 118.58 50.53 118.58 50.82 118.58 51.11 118.58 51.41 118.58 51.41 118.29 51.41 117.99 51.41 117.7 51.41 117.41 51.41 117.11 51.41 116.82 51.41 116.53 51.41 116.24 51.41 115.94 51.41 115.65 51.41 115.36 51.41 115.06 51.41 114.77 51.41 114.48 51.41 114.19 51.41 113.89 51.41 113.6 51.41 113.31 51.41 113.01 51.41 112.72 51.11 112.72"/>
      <polygon class="cls-4" points="1201.27 94.26 1200.98 94.29 1200.69 94.33 1200.4 94.37 1200.11 94.41 1199.82 94.44 1199.53 94.48 1199.24 94.52 1198.95 94.55 1198.66 94.59 1198.62 94.3 1198.58 94.01 1198.55 93.72 1198.51 93.43 1198.47 93.14 1198.44 92.85 1198.4 92.56 1198.36 92.27 1198.32 91.98 1198.29 91.69 1198 91.72 1197.71 91.76 1197.41 91.8 1197.12 91.84 1196.83 91.87 1196.54 91.91 1196.25 91.95 1195.96 91.99 1195.67 92.02 1195.38 92.06 1195.09 92.1 1194.8 92.13 1194.51 92.17 1194.22 92.21 1193.93 92.25 1193.64 92.28 1193.35 92.32 1193.06 92.36 1192.77 92.4 1192.48 92.43 1192.19 92.47 1191.9 92.51 1191.61 92.54 1191.31 92.58 1191.02 92.62 1190.73 92.66 1190.44 92.69 1190.15 92.73 1189.86 92.77 1189.57 92.81 1189.28 92.84 1188.99 92.88 1188.7 92.92 1188.41 92.95 1188.12 92.99 1187.83 93.03 1187.54 93.07 1187.25 93.1 1186.96 93.14 1186.67 93.18 1186.38 93.22 1186.09 93.25 1185.8 93.29 1185.51 93.33 1185.21 93.36 1184.92 93.4 1184.63 93.44 1184.34 93.48 1184.05 93.51 1183.76 93.55 1183.8 93.84 1183.84 94.13 1183.87 94.42 1183.91 94.71 1183.95 95 1183.99 95.29 1184.02 95.58 1184.06 95.87 1184.1 96.16 1184.13 96.46 1183.84 96.49 1183.55 96.53 1183.26 96.57 1182.97 96.6 1182.68 96.64 1182.39 96.68 1182.1 96.72 1181.81 96.75 1181.52 96.79 1181.23 96.83 1181.27 97.12 1181.3 97.41 1181.34 97.7 1181.38 97.99 1181.42 98.28 1181.45 98.57 1181.49 98.86 1181.53 99.15 1181.57 99.44 1181.6 99.73 1181.31 99.77 1181.02 99.81 1180.73 99.84 1180.44 99.88 1180.15 99.92 1179.86 99.96 1179.57 99.99 1179.28 100.03 1178.99 100.07 1178.7 100.11 1178.66 99.81 1178.62 99.52 1178.59 99.23 1178.55 98.94 1178.51 98.65 1178.47 98.36 1178.44 98.07 1178.4 97.78 1178.36 97.49 1178.33 97.2 1178.03 97.24 1177.74 97.28 1177.45 97.31 1177.16 97.35 1176.87 97.39 1176.58 97.42 1176.29 97.46 1176 97.5 1175.71 97.54 1175.42 97.57 1175.13 97.61 1174.84 97.65 1174.55 97.69 1174.26 97.72 1173.97 97.76 1173.68 97.8 1173.39 97.83 1173.1 97.87 1172.81 97.91 1172.52 97.95 1172.48 97.66 1172.44 97.36 1172.4 97.07 1172.37 96.78 1172.33 96.49 1172.29 96.2 1172.25 95.91 1172.22 95.62 1172.18 95.33 1172.14 95.04 1171.85 95.08 1171.56 95.12 1171.27 95.15 1170.98 95.19 1170.69 95.23 1170.4 95.26 1170.11 95.3 1169.82 95.34 1169.53 95.38 1169.24 95.41 1168.95 95.45 1168.66 95.49 1168.37 95.53 1168.08 95.56 1167.79 95.6 1167.5 95.64 1167.21 95.67 1166.91 95.71 1166.62 95.75 1166.33 95.79 1166.04 95.82 1165.75 95.86 1165.46 95.9 1165.17 95.94 1164.88 95.97 1164.59 96.01 1164.3 96.05 1164.01 96.08 1163.72 96.12 1163.43 96.16 1163.47 96.45 1163.5 96.74 1163.54 97.03 1163.58 97.32 1163.62 97.61 1163.65 97.9 1163.69 98.19 1163.73 98.48 1163.76 98.77 1163.8 99.06 1163.51 99.1 1163.22 99.14 1162.93 99.18 1162.64 99.21 1162.35 99.25 1162.06 99.29 1161.77 99.32 1161.48 99.36 1161.19 99.4 1160.9 99.44 1160.93 99.73 1160.97 100.02 1161.01 100.31 1161.05 100.6 1161.08 100.89 1161.12 101.18 1161.16 101.47 1161.19 101.76 1161.23 102.05 1161.27 102.34 1161.31 102.63 1161.34 102.92 1161.38 103.21 1161.42 103.5 1161.46 103.79 1161.49 104.08 1161.53 104.37 1161.57 104.67 1161.6 104.96 1161.64 105.25 1161.68 105.54 1161.72 105.83 1161.75 106.12 1161.79 106.41 1161.83 106.7 1161.87 106.99 1161.9 107.28 1161.94 107.57 1161.98 107.86 1162.01 108.15 1162.31 108.11 1162.6 108.08 1162.89 108.04 1163.18 108 1163.47 107.96 1163.76 107.93 1164.05 107.89 1164.34 107.85 1164.63 107.82 1164.92 107.78 1164.96 108.07 1164.99 108.36 1165.03 108.65 1165.07 108.94 1165.11 109.23 1165.14 109.52 1165.18 109.81 1165.22 110.1 1165.25 110.39 1165.29 110.68 1165.33 110.97 1165.37 111.26 1165.4 111.55 1165.44 111.84 1165.48 112.14 1165.52 112.43 1165.55 112.72 1165.59 113.01 1165.63 113.3 1165.66 113.59 1165.96 113.55 1166.25 113.51 1166.54 113.48 1166.83 113.44 1167.12 113.4 1167.41 113.36 1167.7 113.33 1167.99 113.29 1168.28 113.25 1168.57 113.22 1168.61 113.51 1168.64 113.8 1168.68 114.09 1168.72 114.38 1168.76 114.67 1168.79 114.96 1168.83 115.25 1168.87 115.54 1168.9 115.83 1168.94 116.12 1169.23 116.08 1169.52 116.05 1169.81 116.01 1170.1 115.97 1170.39 115.93 1170.68 115.9 1170.98 115.86 1171.27 115.82 1171.56 115.78 1171.85 115.75 1172.14 115.71 1172.43 115.67 1172.72 115.64 1173.01 115.6 1173.3 115.56 1173.59 115.52 1173.88 115.49 1174.17 115.45 1174.46 115.41 1174.75 115.37 1174.79 115.66 1174.83 115.96 1174.86 116.25 1174.9 116.54 1174.94 116.83 1174.98 117.12 1175.01 117.41 1175.05 117.7 1175.09 117.99 1175.12 118.28 1175.41 118.24 1175.71 118.2 1176 118.17 1176.29 118.13 1176.58 118.09 1176.87 118.06 1177.16 118.02 1177.45 117.98 1177.74 117.94 1178.03 117.91 1178.07 118.2 1178.1 118.49 1178.14 118.78 1178.18 119.07 1178.22 119.36 1178.25 119.65 1178.29 119.94 1178.33 120.23 1178.36 120.52 1178.4 120.81 1178.44 121.1 1178.48 121.39 1178.51 121.68 1178.55 121.97 1178.59 122.26 1178.63 122.55 1178.66 122.84 1178.7 123.14 1178.74 123.43 1178.77 123.72 1179.06 123.68 1179.36 123.64 1179.65 123.6 1179.94 123.57 1180.23 123.53 1180.52 123.49 1180.81 123.46 1181.1 123.42 1181.39 123.38 1181.68 123.34 1181.72 123.63 1181.75 123.92 1181.79 124.21 1181.83 124.51 1181.87 124.8 1181.9 125.09 1181.94 125.38 1181.98 125.67 1182.01 125.96 1182.05 126.25 1182.34 126.21 1182.63 126.17 1182.92 126.14 1183.21 126.1 1183.5 126.06 1183.79 126.02 1184.09 125.99 1184.38 125.95 1184.67 125.91 1184.96 125.88 1185.25 125.84 1185.54 125.8 1185.83 125.76 1186.12 125.73 1186.41 125.69 1186.7 125.65 1186.99 125.61 1187.28 125.58 1187.57 125.54 1187.86 125.5 1187.82 125.21 1187.79 124.92 1187.75 124.63 1187.71 124.34 1187.67 124.05 1187.64 123.76 1187.6 123.47 1187.56 123.18 1187.53 122.89 1187.49 122.6 1187.78 122.56 1188.07 122.52 1188.36 122.49 1188.65 122.45 1188.94 122.41 1189.23 122.37 1189.52 122.34 1189.81 122.3 1190.1 122.26 1190.39 122.23 1190.36 121.94 1190.32 121.64 1190.28 121.35 1190.24 121.06 1190.21 120.77 1190.17 120.48 1190.13 120.19 1190.1 119.9 1190.06 119.61 1190.02 119.32 1189.98 119.03 1189.95 118.74 1189.91 118.45 1189.87 118.16 1189.83 117.87 1189.8 117.58 1189.76 117.29 1189.72 117 1189.69 116.71 1189.65 116.42 1189.94 116.38 1190.23 116.34 1190.52 116.3 1190.81 116.27 1191.1 116.23 1191.39 116.19 1191.68 116.16 1191.97 116.12 1192.26 116.08 1192.55 116.04 1192.52 115.75 1192.48 115.46 1192.44 115.17 1192.4 114.88 1192.37 114.59 1192.33 114.3 1192.29 114.01 1192.25 113.72 1192.22 113.43 1192.18 113.14 1192.47 113.1 1192.76 113.06 1193.05 113.03 1193.34 112.99 1193.63 112.95 1193.92 112.92 1194.21 112.88 1194.5 112.84 1194.79 112.8 1195.08 112.77 1195.05 112.48 1195.01 112.19 1194.97 111.89 1194.94 111.6 1194.9 111.31 1194.86 111.02 1194.82 110.73 1194.79 110.44 1194.75 110.15 1194.71 109.86 1195 109.82 1195.29 109.79 1195.58 109.75 1195.87 109.71 1196.16 109.67 1196.46 109.64 1196.75 109.6 1197.04 109.56 1197.33 109.53 1197.62 109.49 1197.58 109.2 1197.54 108.91 1197.51 108.62 1197.47 108.33 1197.43 108.04 1197.39 107.75 1197.36 107.46 1197.32 107.16 1197.28 106.87 1197.24 106.58 1197.53 106.55 1197.83 106.51 1198.12 106.47 1198.41 106.43 1198.7 106.4 1198.99 106.36 1199.28 106.32 1199.57 106.29 1199.86 106.25 1200.15 106.21 1200.11 105.92 1200.07 105.63 1200.04 105.34 1200 105.05 1199.96 104.76 1199.93 104.47 1199.89 104.18 1199.85 103.89 1199.81 103.6 1199.78 103.31 1199.74 103.02 1199.7 102.73 1199.66 102.44 1199.63 102.14 1199.59 101.85 1199.55 101.56 1199.52 101.27 1199.48 100.98 1199.44 100.69 1199.4 100.4 1199.69 100.36 1199.98 100.33 1200.28 100.29 1200.57 100.25 1200.86 100.22 1201.15 100.18 1201.44 100.14 1201.73 100.1 1202.02 100.07 1202.31 100.03 1202.27 99.74 1202.23 99.45 1202.2 99.16 1202.16 98.87 1202.12 98.58 1202.09 98.29 1202.05 98 1202.01 97.71 1201.97 97.41 1201.94 97.12 1201.9 96.83 1201.86 96.54 1201.82 96.25 1201.79 95.96 1201.75 95.67 1201.71 95.38 1201.68 95.09 1201.64 94.8 1201.6 94.51 1201.56 94.22 1201.27 94.26"/>
      <polygon class="cls-4" points="37.86 9.22 37.59 9.33 37.32 9.44 37.05 9.54 36.77 9.65 36.5 9.76 36.23 9.87 35.96 9.97 35.68 10.08 35.41 10.19 35.3 9.92 35.2 9.64 35.09 9.37 34.98 9.1 34.87 8.83 34.77 8.56 34.66 8.28 34.55 8.01 34.44 7.74 34.34 7.47 34.06 7.57 33.79 7.68 33.52 7.79 33.25 7.9 32.97 8 32.7 8.11 32.43 8.22 32.16 8.33 31.89 8.43 31.61 8.54 31.34 8.65 31.07 8.76 30.8 8.86 30.52 8.97 30.25 9.08 29.98 9.19 29.71 9.29 29.43 9.4 29.16 9.51 28.89 9.62 28.62 9.72 28.34 9.83 28.07 9.94 27.8 10.05 27.53 10.15 27.25 10.26 26.98 10.37 26.71 10.48 26.44 10.58 26.16 10.69 25.89 10.8 25.62 10.91 25.35 11.01 25.08 11.12 24.8 11.23 24.53 11.34 24.26 11.44 23.99 11.55 23.71 11.66 23.44 11.77 23.17 11.87 22.9 11.98 22.62 12.09 22.35 12.2 22.08 12.3 21.81 12.41 21.53 12.52 21.26 12.63 20.99 12.73 20.72 12.84 20.82 13.11 20.93 13.39 21.04 13.66 21.15 13.93 21.25 14.2 21.36 14.48 21.47 14.75 21.58 15.02 21.68 15.29 21.79 15.57 21.52 15.67 21.25 15.78 20.97 15.89 20.7 16 20.43 16.1 20.16 16.21 19.89 16.32 19.61 16.43 19.34 16.53 19.07 16.64 19.18 16.91 19.28 17.19 19.39 17.46 19.5 17.73 19.61 18 19.71 18.28 19.82 18.55 19.93 18.82 20.04 19.09 20.14 19.37 19.87 19.47 19.6 19.58 19.33 19.69 19.05 19.8 18.78 19.9 18.51 20.01 18.24 20.12 17.96 20.23 17.69 20.33 17.42 20.44 17.31 20.17 17.2 19.9 17.1 19.62 16.99 19.35 16.88 19.08 16.77 18.81 16.67 18.53 16.56 18.26 16.45 17.99 16.34 17.72 16.07 17.82 15.8 17.93 15.53 18.04 15.25 18.15 14.98 18.25 14.71 18.36 14.44 18.47 14.16 18.58 13.89 18.68 13.62 18.79 13.35 18.9 13.08 19.01 12.8 19.11 12.53 19.22 12.26 19.33 11.99 19.44 11.71 19.54 11.44 19.65 11.17 19.76 10.9 19.87 10.79 19.59 10.68 19.32 10.57 19.05 10.47 18.78 10.36 18.51 10.25 18.23 10.14 17.96 10.04 17.69 9.93 17.42 9.82 17.14 9.55 17.25 9.28 17.36 9 17.47 8.73 17.57 8.46 17.68 8.19 17.79 7.91 17.9 7.64 18 7.37 18.11 7.1 18.22 6.82 18.33 6.55 18.43 6.28 18.54 6.01 18.65 5.73 18.76 5.46 18.86 5.19 18.97 4.92 19.08 4.65 19.19 4.37 19.29 4.1 19.4 3.83 19.51 3.56 19.62 3.28 19.72 3.01 19.83 2.74 19.94 2.47 20.05 2.19 20.15 1.92 20.26 1.65 20.37 1.76 20.64 1.86 20.91 1.97 21.19 2.08 21.46 2.19 21.73 2.29 22 2.4 22.28 2.51 22.55 2.62 22.82 2.72 23.09 2.45 23.2 2.18 23.31 1.91 23.42 1.63 23.52 1.36 23.63 1.09 23.74 .82 23.85 .54 23.95 .27 24.06 0 24.17 .11 24.44 .22 24.71 .32 24.99 .43 25.26 .54 25.53 .65 25.8 .75 26.08 .86 26.35 .97 26.62 1.08 26.89 1.18 27.16 1.29 27.44 1.4 27.71 1.51 27.98 1.61 28.25 1.72 28.53 1.83 28.8 1.94 29.07 2.04 29.34 2.15 29.62 2.26 29.89 2.37 30.16 2.47 30.43 2.58 30.71 2.69 30.98 2.8 31.25 2.9 31.52 3.01 31.8 3.12 32.07 3.23 32.34 3.5 32.23 3.77 32.13 4.04 32.02 4.32 31.91 4.59 31.8 4.86 31.7 5.13 31.59 5.41 31.48 5.68 31.37 5.95 31.27 6.06 31.54 6.16 31.81 6.27 32.08 6.38 32.35 6.49 32.63 6.6 32.9 6.7 33.17 6.81 33.44 6.92 33.72 7.03 33.99 7.13 34.26 7.24 34.53 7.35 34.81 7.46 35.08 7.56 35.35 7.67 35.62 7.78 35.9 7.89 36.17 7.99 36.44 8.1 36.71 8.37 36.61 8.65 36.5 8.92 36.39 9.19 36.28 9.46 36.18 9.73 36.07 10.01 35.96 10.28 35.85 10.55 35.75 10.82 35.64 10.93 35.91 11.04 36.18 11.15 36.46 11.25 36.73 11.36 37 11.47 37.27 11.58 37.54 11.68 37.82 11.79 38.09 11.9 38.36 12.17 38.25 12.44 38.15 12.72 38.04 12.99 37.93 13.26 37.82 13.53 37.72 13.81 37.61 14.08 37.5 14.35 37.39 14.62 37.29 14.9 37.18 15.17 37.07 15.44 36.96 15.71 36.86 15.99 36.75 16.26 36.64 16.53 36.53 16.8 36.43 17.08 36.32 17.35 36.21 17.46 36.48 17.56 36.76 17.67 37.03 17.78 37.3 17.89 37.57 17.99 37.85 18.1 38.12 18.21 38.39 18.32 38.66 18.42 38.94 18.7 38.83 18.97 38.72 19.24 38.61 19.51 38.51 19.79 38.4 20.06 38.29 20.33 38.18 20.6 38.08 20.87 37.97 21.15 37.86 21.25 38.13 21.36 38.4 21.47 38.68 21.58 38.95 21.68 39.22 21.79 39.49 21.9 39.77 22.01 40.04 22.11 40.31 22.22 40.58 22.33 40.86 22.44 41.13 22.55 41.4 22.65 41.67 22.76 41.95 22.87 42.22 22.98 42.49 23.08 42.76 23.19 43.04 23.3 43.31 23.57 43.2 23.84 43.09 24.11 42.99 24.39 42.88 24.66 42.77 24.93 42.66 25.2 42.56 25.48 42.45 25.75 42.34 26.02 42.23 26.13 42.51 26.24 42.78 26.34 43.05 26.45 43.32 26.56 43.59 26.67 43.87 26.77 44.14 26.88 44.41 26.99 44.68 27.1 44.96 27.37 44.85 27.64 44.74 27.91 44.63 28.19 44.53 28.46 44.42 28.73 44.31 29 44.2 29.28 44.1 29.55 43.99 29.82 43.88 30.09 43.77 30.37 43.67 30.64 43.56 30.91 43.45 31.18 43.34 31.46 43.24 31.73 43.13 32 43.02 32.27 42.91 32.55 42.81 32.44 42.53 32.33 42.26 32.22 41.99 32.11 41.72 32.01 41.44 31.9 41.17 31.79 40.9 31.68 40.63 31.58 40.35 31.47 40.08 31.74 39.97 32.01 39.87 32.29 39.76 32.56 39.65 32.83 39.54 33.1 39.44 33.38 39.33 33.65 39.22 33.92 39.11 34.19 39.01 34.09 38.73 33.98 38.46 33.87 38.19 33.76 37.92 33.66 37.64 33.55 37.37 33.44 37.1 33.33 36.83 33.23 36.56 33.12 36.28 33.01 36.01 32.9 35.74 32.8 35.47 32.69 35.19 32.58 34.92 32.47 34.65 32.37 34.38 32.26 34.1 32.15 33.83 32.04 33.56 32.32 33.45 32.59 33.34 32.86 33.24 33.13 33.13 33.41 33.02 33.68 32.91 33.95 32.81 34.22 32.7 34.49 32.59 34.77 32.48 34.66 32.21 34.55 31.94 34.44 31.67 34.34 31.39 34.23 31.12 34.12 30.85 34.01 30.58 33.91 30.3 33.8 30.03 33.69 29.76 33.96 29.65 34.24 29.54 34.51 29.44 34.78 29.33 35.05 29.22 35.33 29.11 35.6 29.01 35.87 28.9 36.14 28.79 36.42 28.68 36.31 28.41 36.2 28.14 36.09 27.87 35.99 27.59 35.88 27.32 35.77 27.05 35.66 26.78 35.56 26.51 35.45 26.23 35.34 25.96 35.61 25.85 35.89 25.75 36.16 25.64 36.43 25.53 36.7 25.42 36.98 25.32 37.25 25.21 37.52 25.1 37.79 24.99 38.06 24.88 37.96 24.61 37.85 24.34 37.74 24.07 37.63 23.8 37.53 23.52 37.42 23.25 37.31 22.98 37.2 22.71 37.1 22.43 36.99 22.16 37.26 22.05 37.53 21.95 37.81 21.84 38.08 21.73 38.35 21.62 38.62 21.52 38.9 21.41 39.17 21.3 39.44 21.19 39.71 21.09 39.61 20.81 39.5 20.54 39.39 20.27 39.28 20 39.18 19.72 39.07 19.45 38.96 19.18 38.85 18.91 38.75 18.63 38.64 18.36 38.53 18.09 38.42 17.82 38.32 17.54 38.21 17.27 38.1 17 37.99 16.73 37.89 16.45 37.78 16.18 37.67 15.91 37.56 15.64 37.84 15.53 38.11 15.42 38.38 15.32 38.65 15.21 38.92 15.1 39.2 14.99 39.47 14.88 39.74 14.78 40.01 14.67 40.29 14.56 40.18 14.29 40.07 14.02 39.96 13.75 39.86 13.47 39.75 13.2 39.64 12.93 39.53 12.66 39.43 12.38 39.32 12.11 39.21 11.84 39.1 11.57 39 11.29 38.89 11.02 38.78 10.75 38.67 10.48 38.57 10.2 38.46 9.93 38.35 9.66 38.24 9.39 38.14 9.11 37.86 9.22"/>
      <polygon class="cls-4" points="1053.71 145.98 1053.44 145.87 1053.18 145.75 1052.91 145.63 1052.64 145.51 1052.37 145.39 1052.1 145.28 1051.84 145.16 1051.57 145.04 1051.3 144.92 1051.42 144.65 1051.54 144.39 1051.65 144.12 1051.77 143.85 1051.89 143.58 1052.01 143.31 1052.13 143.05 1052.24 142.78 1052.36 142.51 1052.48 142.24 1052.21 142.12 1051.94 142.01 1051.68 141.89 1051.41 141.77 1051.14 141.65 1050.87 141.53 1050.6 141.42 1050.34 141.3 1050.07 141.18 1049.8 141.06 1049.53 140.94 1049.26 140.83 1049 140.71 1048.73 140.59 1048.46 140.47 1048.19 140.35 1047.92 140.24 1047.66 140.12 1047.39 140 1047.12 139.88 1046.85 139.76 1046.58 139.65 1046.32 139.53 1046.05 139.41 1045.78 139.29 1045.51 139.17 1045.24 139.05 1044.98 138.94 1044.71 138.82 1044.44 138.7 1044.17 138.58 1043.9 138.46 1043.64 138.35 1043.37 138.23 1043.1 138.11 1042.83 137.99 1042.56 137.87 1042.3 137.76 1042.03 137.64 1041.76 137.52 1041.49 137.4 1041.22 137.28 1040.96 137.17 1040.69 137.05 1040.42 136.93 1040.15 136.81 1039.88 136.69 1039.62 136.58 1039.35 136.46 1039.08 136.34 1038.96 136.61 1038.84 136.88 1038.73 137.14 1038.61 137.41 1038.49 137.68 1038.37 137.95 1038.25 138.22 1038.14 138.48 1038.02 138.75 1037.9 139.02 1037.63 138.9 1037.36 138.78 1037.1 138.67 1036.83 138.55 1036.56 138.43 1036.29 138.31 1036.02 138.19 1035.76 138.08 1035.49 137.96 1035.22 137.84 1035.1 138.11 1034.98 138.38 1034.87 138.64 1034.75 138.91 1034.63 139.18 1034.51 139.45 1034.39 139.72 1034.27 139.98 1034.16 140.25 1034.04 140.52 1033.77 140.4 1033.5 140.28 1033.23 140.16 1032.97 140.05 1032.7 139.93 1032.43 139.81 1032.16 139.69 1031.89 139.57 1031.63 139.46 1031.36 139.34 1031.48 139.07 1031.59 138.8 1031.71 138.53 1031.83 138.27 1031.95 138 1032.07 137.73 1032.19 137.46 1032.3 137.19 1032.42 136.93 1032.54 136.66 1032.27 136.54 1032 136.42 1031.74 136.3 1031.47 136.19 1031.2 136.07 1030.93 135.95 1030.66 135.83 1030.4 135.71 1030.13 135.6 1029.86 135.48 1029.59 135.36 1029.32 135.24 1029.06 135.12 1028.79 135.01 1028.52 134.89 1028.25 134.77 1027.98 134.65 1027.72 134.53 1027.45 134.42 1027.18 134.3 1027.3 134.03 1027.42 133.76 1027.53 133.49 1027.65 133.23 1027.77 132.96 1027.89 132.69 1028.01 132.42 1028.12 132.15 1028.24 131.89 1028.36 131.62 1028.09 131.5 1027.82 131.38 1027.56 131.26 1027.29 131.15 1027.02 131.03 1026.75 130.91 1026.48 130.79 1026.22 130.67 1025.95 130.55 1025.68 130.44 1025.41 130.32 1025.14 130.2 1024.88 130.08 1024.61 129.96 1024.34 129.85 1024.07 129.73 1023.8 129.61 1023.54 129.49 1023.27 129.37 1023 129.26 1022.73 129.14 1022.46 129.02 1022.2 128.9 1021.93 128.78 1021.66 128.67 1021.39 128.55 1021.12 128.43 1020.86 128.31 1020.59 128.19 1020.32 128.08 1020.2 128.34 1020.08 128.61 1019.97 128.88 1019.85 129.15 1019.73 129.42 1019.61 129.68 1019.49 129.95 1019.38 130.22 1019.26 130.49 1019.14 130.76 1018.87 130.64 1018.6 130.52 1018.33 130.4 1018.07 130.28 1017.8 130.17 1017.53 130.05 1017.26 129.93 1016.99 129.81 1016.73 129.69 1016.46 129.58 1016.34 129.84 1016.22 130.11 1016.1 130.38 1015.99 130.65 1015.87 130.92 1015.75 131.18 1015.63 131.45 1015.51 131.72 1015.4 131.99 1015.28 132.26 1015.16 132.52 1015.04 132.79 1014.92 133.06 1014.81 133.33 1014.69 133.6 1014.57 133.86 1014.45 134.13 1014.33 134.4 1014.22 134.67 1014.1 134.94 1013.98 135.2 1013.86 135.47 1013.74 135.74 1013.63 136.01 1013.51 136.28 1013.39 136.54 1013.27 136.81 1013.15 137.08 1013.04 137.35 1012.92 137.62 1013.19 137.73 1013.45 137.85 1013.72 137.97 1013.99 138.09 1014.26 138.21 1014.53 138.32 1014.79 138.44 1015.06 138.56 1015.33 138.68 1015.6 138.8 1015.48 139.06 1015.36 139.33 1015.24 139.6 1015.13 139.87 1015.01 140.14 1014.89 140.4 1014.77 140.67 1014.65 140.94 1014.53 141.21 1014.42 141.48 1014.3 141.74 1014.18 142.01 1014.06 142.28 1013.94 142.55 1013.83 142.82 1013.71 143.08 1013.59 143.35 1013.47 143.62 1013.35 143.89 1013.24 144.16 1013.5 144.27 1013.77 144.39 1014.04 144.51 1014.31 144.63 1014.58 144.75 1014.84 144.86 1015.11 144.98 1015.38 145.1 1015.65 145.22 1015.92 145.34 1015.8 145.6 1015.68 145.87 1015.56 146.14 1015.44 146.41 1015.33 146.68 1015.21 146.94 1015.09 147.21 1014.97 147.48 1014.85 147.75 1014.74 148.02 1015 148.13 1015.27 148.25 1015.54 148.37 1015.81 148.49 1016.08 148.61 1016.34 148.73 1016.61 148.84 1016.88 148.96 1017.15 149.08 1017.42 149.2 1017.68 149.32 1017.95 149.43 1018.22 149.55 1018.49 149.67 1018.76 149.79 1019.02 149.91 1019.29 150.02 1019.56 150.14 1019.83 150.26 1020.1 150.38 1019.98 150.65 1019.86 150.91 1019.74 151.18 1019.62 151.45 1019.51 151.72 1019.39 151.99 1019.27 152.25 1019.15 152.52 1019.03 152.79 1018.92 153.06 1019.18 153.18 1019.45 153.29 1019.72 153.41 1019.99 153.53 1020.26 153.65 1020.52 153.77 1020.79 153.88 1021.06 154 1021.33 154.12 1021.6 154.24 1021.48 154.51 1021.36 154.77 1021.24 155.04 1021.12 155.31 1021.01 155.58 1020.89 155.85 1020.77 156.11 1020.65 156.38 1020.53 156.65 1020.41 156.92 1020.3 157.19 1020.18 157.45 1020.06 157.72 1019.94 157.99 1019.82 158.26 1019.71 158.53 1019.59 158.79 1019.47 159.06 1019.35 159.33 1019.23 159.6 1019.5 159.72 1019.77 159.83 1020.04 159.95 1020.31 160.07 1020.57 160.19 1020.84 160.31 1021.11 160.43 1021.38 160.54 1021.65 160.66 1021.91 160.78 1021.8 161.05 1021.68 161.32 1021.56 161.58 1021.44 161.85 1021.32 162.12 1021.21 162.39 1021.09 162.66 1020.97 162.92 1020.85 163.19 1020.73 163.46 1021 163.58 1021.27 163.7 1021.54 163.81 1021.81 163.93 1022.07 164.05 1022.34 164.17 1022.61 164.29 1022.88 164.4 1023.15 164.52 1023.41 164.64 1023.68 164.76 1023.95 164.88 1024.22 164.99 1024.49 165.11 1024.75 165.23 1025.02 165.35 1025.29 165.47 1025.56 165.58 1025.83 165.7 1026.09 165.82 1026.21 165.55 1026.33 165.28 1026.45 165.02 1026.57 164.75 1026.68 164.48 1026.8 164.21 1026.92 163.94 1027.04 163.68 1027.16 163.41 1027.27 163.14 1027.54 163.26 1027.81 163.38 1028.08 163.49 1028.35 163.61 1028.61 163.73 1028.88 163.85 1029.15 163.97 1029.42 164.08 1029.69 164.2 1029.95 164.32 1030.07 164.05 1030.19 163.78 1030.31 163.52 1030.43 163.25 1030.54 162.98 1030.66 162.71 1030.78 162.44 1030.9 162.18 1031.02 161.91 1031.14 161.64 1031.25 161.37 1031.37 161.1 1031.49 160.84 1031.61 160.57 1031.73 160.3 1031.84 160.03 1031.96 159.76 1032.08 159.5 1032.2 159.23 1032.32 158.96 1032.58 159.08 1032.85 159.2 1033.12 159.31 1033.39 159.43 1033.66 159.55 1033.92 159.67 1034.19 159.79 1034.46 159.91 1034.73 160.02 1035 160.14 1035.11 159.87 1035.23 159.61 1035.35 159.34 1035.47 159.07 1035.59 158.8 1035.7 158.53 1035.82 158.27 1035.94 158 1036.06 157.73 1036.18 157.46 1036.44 157.58 1036.71 157.7 1036.98 157.82 1037.25 157.93 1037.52 158.05 1037.78 158.17 1038.05 158.29 1038.32 158.41 1038.59 158.52 1038.86 158.64 1038.97 158.37 1039.09 158.11 1039.21 157.84 1039.33 157.57 1039.45 157.3 1039.56 157.03 1039.68 156.77 1039.8 156.5 1039.92 156.23 1040.04 155.96 1040.3 156.08 1040.57 156.2 1040.84 156.32 1041.11 156.43 1041.38 156.55 1041.65 156.67 1041.91 156.79 1042.18 156.91 1042.45 157.02 1042.72 157.14 1042.84 156.87 1042.95 156.61 1043.07 156.34 1043.19 156.07 1043.31 155.8 1043.43 155.53 1043.54 155.27 1043.66 155 1043.78 154.73 1043.9 154.46 1044.17 154.58 1044.43 154.7 1044.7 154.82 1044.97 154.93 1045.24 155.05 1045.51 155.17 1045.77 155.29 1046.04 155.41 1046.31 155.52 1046.58 155.64 1046.7 155.37 1046.81 155.11 1046.93 154.84 1047.05 154.57 1047.17 154.3 1047.29 154.03 1047.4 153.77 1047.52 153.5 1047.64 153.23 1047.76 152.96 1047.88 152.69 1047.99 152.43 1048.11 152.16 1048.23 151.89 1048.35 151.62 1048.47 151.35 1048.58 151.09 1048.7 150.82 1048.82 150.55 1048.94 150.28 1049.21 150.4 1049.47 150.52 1049.74 150.64 1050.01 150.75 1050.28 150.87 1050.55 150.99 1050.81 151.11 1051.08 151.23 1051.35 151.35 1051.62 151.46 1051.74 151.2 1051.85 150.93 1051.97 150.66 1052.09 150.39 1052.21 150.12 1052.33 149.86 1052.45 149.59 1052.56 149.32 1052.68 149.05 1052.8 148.78 1052.92 148.52 1053.04 148.25 1053.15 147.98 1053.27 147.71 1053.39 147.44 1053.51 147.17 1053.63 146.91 1053.74 146.64 1053.86 146.37 1053.98 146.1 1053.71 145.98"/>
      <polygon class="cls-4" points="1147.57 2.57 1147.28 2.61 1146.99 2.64 1146.7 2.68 1146.41 2.72 1146.12 2.76 1145.83 2.79 1145.54 2.83 1145.25 2.87 1144.96 2.9 1144.92 2.61 1144.89 2.32 1144.85 2.03 1144.81 1.74 1144.77 1.45 1144.74 1.16 1144.7 .87 1144.66 .58 1144.62 .29 1144.59 0 1144.3 .04 1144.01 .07 1143.72 .11 1143.43 .15 1143.13 .19 1142.84 .22 1142.55 .26 1142.26 .3 1141.97 .34 1141.68 .37 1141.39 .41 1141.1 .45 1140.81 .48 1140.52 .52 1140.23 .56 1139.94 .6 1139.65 .63 1139.36 .67 1139.07 .71 1138.78 .75 1138.49 .78 1138.2 .82 1137.91 .86 1137.62 .89 1137.33 .93 1137.03 .97 1136.74 1.01 1136.45 1.04 1136.16 1.08 1135.87 1.12 1135.58 1.16 1135.29 1.19 1135 1.23 1134.71 1.27 1134.42 1.3 1134.13 1.34 1133.84 1.38 1133.55 1.42 1133.26 1.45 1132.97 1.49 1132.68 1.53 1132.39 1.57 1132.1 1.6 1131.81 1.64 1131.52 1.68 1131.23 1.71 1130.93 1.75 1130.64 1.79 1130.35 1.83 1130.06 1.86 1130.1 2.15 1130.14 2.44 1130.18 2.73 1130.21 3.03 1130.25 3.32 1130.29 3.61 1130.32 3.9 1130.36 4.19 1130.4 4.48 1130.44 4.77 1130.15 4.81 1129.85 4.84 1129.56 4.88 1129.27 4.92 1128.98 4.95 1128.69 4.99 1128.4 5.03 1128.11 5.07 1127.82 5.1 1127.53 5.14 1127.57 5.43 1127.61 5.72 1127.64 6.01 1127.68 6.3 1127.72 6.59 1127.75 6.88 1127.79 7.17 1127.83 7.46 1127.87 7.75 1127.9 8.05 1127.61 8.08 1127.32 8.12 1127.03 8.16 1126.74 8.19 1126.45 8.23 1126.16 8.27 1125.87 8.31 1125.58 8.34 1125.29 8.38 1125 8.42 1124.96 8.13 1124.92 7.84 1124.89 7.55 1124.85 7.26 1124.81 6.97 1124.78 6.68 1124.74 6.38 1124.7 6.09 1124.66 5.8 1124.63 5.51 1124.34 5.55 1124.05 5.59 1123.75 5.63 1123.46 5.66 1123.17 5.7 1122.88 5.74 1122.59 5.77 1122.3 5.81 1122.01 5.85 1121.72 5.89 1121.43 5.92 1121.14 5.96 1120.85 6 1120.56 6.03 1120.27 6.07 1119.98 6.11 1119.69 6.15 1119.4 6.18 1119.11 6.22 1118.82 6.26 1118.78 5.97 1118.74 5.68 1118.71 5.39 1118.67 5.1 1118.63 4.81 1118.59 4.52 1118.56 4.23 1118.52 3.93 1118.48 3.64 1118.44 3.35 1118.15 3.39 1117.86 3.43 1117.57 3.47 1117.28 3.5 1116.99 3.54 1116.7 3.58 1116.41 3.61 1116.12 3.65 1115.83 3.69 1115.54 3.73 1115.25 3.76 1114.96 3.8 1114.67 3.84 1114.38 3.88 1114.09 3.91 1113.8 3.95 1113.51 3.99 1113.22 4.02 1112.93 4.06 1112.63 4.1 1112.34 4.14 1112.05 4.17 1111.76 4.21 1111.47 4.25 1111.18 4.29 1110.89 4.32 1110.6 4.36 1110.31 4.4 1110.02 4.43 1109.73 4.47 1109.77 4.76 1109.8 5.05 1109.84 5.34 1109.88 5.63 1109.92 5.92 1109.95 6.21 1109.99 6.51 1110.03 6.8 1110.07 7.09 1110.1 7.38 1109.81 7.41 1109.52 7.45 1109.23 7.49 1108.94 7.53 1108.65 7.56 1108.36 7.6 1108.07 7.64 1107.78 7.67 1107.49 7.71 1107.2 7.75 1107.24 8.04 1107.27 8.33 1107.31 8.62 1107.35 8.91 1107.38 9.2 1107.42 9.49 1107.46 9.78 1107.5 10.07 1107.53 10.36 1107.57 10.65 1107.61 10.94 1107.64 11.23 1107.68 11.53 1107.72 11.82 1107.76 12.11 1107.79 12.4 1107.83 12.69 1107.87 12.98 1107.91 13.27 1107.94 13.56 1107.98 13.85 1108.02 14.14 1108.05 14.43 1108.09 14.72 1108.13 15.01 1108.17 15.3 1108.2 15.59 1108.24 15.88 1108.28 16.17 1108.32 16.46 1108.61 16.43 1108.9 16.39 1109.19 16.35 1109.48 16.31 1109.77 16.28 1110.06 16.24 1110.35 16.2 1110.64 16.17 1110.93 16.13 1111.22 16.09 1111.26 16.38 1111.29 16.67 1111.33 16.96 1111.37 17.25 1111.41 17.54 1111.44 17.83 1111.48 18.12 1111.52 18.41 1111.56 18.71 1111.59 19 1111.63 19.29 1111.67 19.58 1111.7 19.87 1111.74 20.16 1111.78 20.45 1111.82 20.74 1111.85 21.03 1111.89 21.32 1111.93 21.61 1111.97 21.9 1112.26 21.86 1112.55 21.83 1112.84 21.79 1113.13 21.75 1113.42 21.71 1113.71 21.68 1114 21.64 1114.29 21.6 1114.58 21.56 1114.87 21.53 1114.91 21.82 1114.95 22.11 1114.98 22.4 1115.02 22.69 1115.06 22.98 1115.09 23.27 1115.13 23.56 1115.17 23.85 1115.21 24.14 1115.24 24.43 1115.53 24.4 1115.82 24.36 1116.11 24.32 1116.41 24.28 1116.7 24.25 1116.99 24.21 1117.28 24.17 1117.57 24.13 1117.86 24.1 1118.15 24.06 1118.44 24.02 1118.73 23.99 1119.02 23.95 1119.31 23.91 1119.6 23.87 1119.89 23.84 1120.18 23.8 1120.47 23.76 1120.76 23.72 1121.05 23.69 1121.09 23.98 1121.13 24.27 1121.16 24.56 1121.2 24.85 1121.24 25.14 1121.28 25.43 1121.31 25.72 1121.35 26.01 1121.39 26.3 1121.43 26.59 1121.72 26.55 1122.01 26.52 1122.3 26.48 1122.59 26.44 1122.88 26.41 1123.17 26.37 1123.46 26.33 1123.75 26.29 1124.04 26.26 1124.33 26.22 1124.37 26.51 1124.4 26.8 1124.44 27.09 1124.48 27.38 1124.52 27.67 1124.55 27.96 1124.59 28.25 1124.63 28.54 1124.67 28.83 1124.7 29.12 1124.74 29.41 1124.78 29.7 1124.81 30 1124.85 30.29 1124.89 30.58 1124.93 30.87 1124.96 31.16 1125 31.45 1125.04 31.74 1125.08 32.03 1125.37 31.99 1125.66 31.95 1125.95 31.92 1126.24 31.88 1126.53 31.84 1126.82 31.81 1127.11 31.77 1127.4 31.73 1127.69 31.69 1127.98 31.66 1128.02 31.95 1128.05 32.24 1128.09 32.53 1128.13 32.82 1128.17 33.11 1128.2 33.4 1128.24 33.69 1128.28 33.98 1128.32 34.27 1128.35 34.56 1128.64 34.52 1128.93 34.49 1129.22 34.45 1129.51 34.41 1129.81 34.37 1130.1 34.34 1130.39 34.3 1130.68 34.26 1130.97 34.23 1131.26 34.19 1131.55 34.15 1131.84 34.11 1132.13 34.08 1132.42 34.04 1132.71 34 1133 33.96 1133.29 33.93 1133.58 33.89 1133.87 33.85 1134.16 33.82 1134.13 33.53 1134.09 33.23 1134.05 32.94 1134.01 32.65 1133.98 32.36 1133.94 32.07 1133.9 31.78 1133.86 31.49 1133.83 31.2 1133.79 30.91 1134.08 30.87 1134.37 30.84 1134.66 30.8 1134.95 30.76 1135.24 30.72 1135.53 30.69 1135.82 30.65 1136.11 30.61 1136.4 30.58 1136.69 30.54 1136.66 30.25 1136.62 29.96 1136.58 29.67 1136.55 29.38 1136.51 29.09 1136.47 28.8 1136.43 28.5 1136.4 28.21 1136.36 27.92 1136.32 27.63 1136.28 27.34 1136.25 27.05 1136.21 26.76 1136.17 26.47 1136.14 26.18 1136.1 25.89 1136.06 25.6 1136.02 25.31 1135.99 25.02 1135.95 24.73 1136.24 24.69 1136.53 24.65 1136.82 24.62 1137.11 24.58 1137.4 24.54 1137.69 24.51 1137.98 24.47 1138.27 24.43 1138.56 24.39 1138.85 24.36 1138.82 24.07 1138.78 23.78 1138.74 23.48 1138.7 23.19 1138.67 22.9 1138.63 22.61 1138.59 22.32 1138.56 22.03 1138.52 21.74 1138.48 21.45 1138.77 21.41 1139.06 21.38 1139.35 21.34 1139.64 21.3 1139.93 21.26 1140.22 21.23 1140.51 21.19 1140.81 21.15 1141.1 21.12 1141.39 21.08 1141.35 20.79 1141.31 20.5 1141.27 20.21 1141.24 19.92 1141.2 19.63 1141.16 19.34 1141.13 19.05 1141.09 18.75 1141.05 18.46 1141.01 18.17 1141.3 18.14 1141.59 18.1 1141.88 18.06 1142.18 18.02 1142.47 17.99 1142.76 17.95 1143.05 17.91 1143.34 17.88 1143.63 17.84 1143.92 17.8 1143.88 17.51 1143.84 17.22 1143.81 16.93 1143.77 16.64 1143.73 16.35 1143.69 16.06 1143.66 15.77 1143.62 15.48 1143.58 15.19 1143.55 14.9 1143.84 14.86 1144.13 14.82 1144.42 14.78 1144.71 14.75 1145 14.71 1145.29 14.67 1145.58 14.64 1145.87 14.6 1146.16 14.56 1146.45 14.52 1146.41 14.23 1146.38 13.94 1146.34 13.65 1146.3 13.36 1146.26 13.07 1146.23 12.78 1146.19 12.49 1146.15 12.2 1146.11 11.91 1146.08 11.62 1146.04 11.33 1146 11.04 1145.97 10.75 1145.93 10.46 1145.89 10.17 1145.85 9.88 1145.82 9.59 1145.78 9.3 1145.74 9 1145.7 8.71 1146 8.68 1146.29 8.64 1146.58 8.6 1146.87 8.57 1147.16 8.53 1147.45 8.49 1147.74 8.45 1148.03 8.42 1148.32 8.38 1148.61 8.34 1148.57 8.05 1148.54 7.76 1148.5 7.47 1148.46 7.18 1148.42 6.89 1148.39 6.6 1148.35 6.31 1148.31 6.02 1148.27 5.73 1148.24 5.44 1148.2 5.15 1148.16 4.86 1148.13 4.57 1148.09 4.27 1148.05 3.98 1148.01 3.69 1147.98 3.4 1147.94 3.11 1147.9 2.82 1147.86 2.53 1147.57 2.57"/>
      <text class="cls-3" transform="translate(306.15 165.99)"><tspan x="0" y="0">YIPPI</tspan><tspan class="cls-7" x="271.61" y="0">EEE</tspan><tspan class="cls-2" x="452.69" y="0">E!!</tspan></text>
    </g>
  </g>
</svg>