<?xml version="1.0" encoding="UTF-8"?>
<svg id="Layer_2" data-name="Layer 2" xmlns="http://www.w3.org/2000/svg" viewBox="0 0 421.25 65.34">
  <defs>
    <style>
      .cls-1 {
        opacity: .5;
      }

      .cls-1, .cls-2 {
        fill: #ffb3a5;
      }

      .cls-3 {
        fill: #5e5473;
      }
    </style>
  </defs>
  <g id="Layer_1-2" data-name="Layer 1">
    <polygon class="cls-2" points="36.21 22.38 35.95 22.51 35.69 22.64 35.43 22.78 35.17 22.91 34.91 23.05 34.65 23.18 34.39 23.31 34.13 23.45 33.87 23.58 33.73 23.32 33.6 23.06 33.46 22.8 33.33 22.54 33.2 22.28 33.06 22.02 32.93 21.76 32.8 21.5 32.66 21.24 32.53 20.98 32.27 21.11 32.01 21.24 31.75 21.38 31.49 21.51 31.23 21.64 30.97 21.78 30.7 21.91 30.44 22.05 30.18 22.18 29.92 22.31 29.66 22.45 29.4 22.58 29.14 22.71 28.88 22.85 28.62 22.98 28.36 23.12 28.1 23.25 27.84 23.38 27.58 23.52 27.32 23.65 27.06 23.78 26.8 23.92 26.54 24.05 26.28 24.19 26.02 24.32 25.75 24.45 25.49 24.59 25.23 24.72 24.97 24.86 24.71 24.99 24.45 25.12 24.19 25.26 23.93 25.39 23.67 25.52 23.41 25.66 23.15 25.79 22.89 25.93 22.63 26.06 22.37 26.19 22.11 26.33 21.85 26.46 21.59 26.59 21.33 26.73 21.07 26.86 20.81 27 20.54 27.13 20.28 27.26 20.02 27.4 19.76 27.53 19.5 27.66 19.64 27.93 19.77 28.19 19.9 28.45 20.04 28.71 20.17 28.97 20.31 29.23 20.44 29.49 20.57 29.75 20.71 30.01 20.84 30.27 20.58 30.4 20.32 30.54 20.06 30.67 19.8 30.81 19.54 30.94 19.28 31.07 19.02 31.21 18.76 31.34 18.5 31.47 18.24 31.61 18.37 31.87 18.5 32.13 18.64 32.39 18.77 32.65 18.9 32.91 19.04 33.17 19.17 33.43 19.31 33.69 19.44 33.95 19.57 34.21 19.31 34.35 19.05 34.48 18.79 34.61 18.53 34.75 18.27 34.88 18.01 35.02 17.75 35.15 17.49 35.28 17.23 35.42 16.97 35.55 16.83 35.29 16.7 35.03 16.57 34.77 16.43 34.51 16.3 34.25 16.17 33.99 16.03 33.73 15.9 33.47 15.76 33.21 15.63 32.95 15.37 33.08 15.11 33.21 14.85 33.35 14.59 33.48 14.33 33.61 14.07 33.75 13.81 33.88 13.55 34.02 13.29 34.15 13.03 34.28 12.76 34.42 12.5 34.55 12.24 34.69 11.98 34.82 11.72 34.95 11.46 35.09 11.2 35.22 10.94 35.35 10.68 35.49 10.42 35.62 10.29 35.36 10.15 35.1 10.02 34.84 9.89 34.58 9.75 34.32 9.62 34.06 9.48 33.8 9.35 33.54 9.22 33.28 9.08 33.02 8.82 33.15 8.56 33.28 8.3 33.42 8.04 33.55 7.78 33.69 7.52 33.82 7.26 33.95 7 34.09 6.74 34.22 6.48 34.35 6.22 34.49 5.96 34.62 5.7 34.76 5.44 34.89 5.17 35.02 4.91 35.16 4.65 35.29 4.39 35.42 4.13 35.56 3.87 35.69 3.61 35.83 3.35 35.96 3.09 36.09 2.83 36.23 2.57 36.36 2.31 36.5 2.05 36.63 1.79 36.76 1.53 36.9 1.27 37.03 1.4 37.29 1.53 37.55 1.67 37.81 1.8 38.07 1.94 38.33 2.07 38.59 2.2 38.85 2.34 39.11 2.47 39.37 2.61 39.64 2.34 39.77 2.08 39.9 1.82 40.04 1.56 40.17 1.3 40.3 1.04 40.44 .78 40.57 .52 40.71 .26 40.84 0 40.97 .13 41.23 .27 41.49 .4 41.75 .54 42.02 .67 42.28 .8 42.54 .94 42.8 1.07 43.06 1.2 43.32 1.34 43.58 1.47 43.84 1.61 44.1 1.74 44.36 1.87 44.62 2.01 44.88 2.14 45.14 2.27 45.4 2.41 45.66 2.54 45.92 2.68 46.18 2.81 46.44 2.94 46.7 3.08 46.97 3.21 47.23 3.34 47.49 3.48 47.75 3.61 48.01 3.75 48.27 3.88 48.53 4.01 48.79 4.27 48.65 4.53 48.52 4.8 48.39 5.06 48.25 5.32 48.12 5.58 47.99 5.84 47.85 6.1 47.72 6.36 47.58 6.62 47.45 6.75 47.71 6.89 47.97 7.02 48.23 7.15 48.49 7.29 48.75 7.42 49.01 7.56 49.27 7.69 49.53 7.82 49.8 7.96 50.06 8.09 50.32 8.22 50.58 8.36 50.84 8.49 51.1 8.63 51.36 8.76 51.62 8.89 51.88 9.03 52.14 9.16 52.4 9.29 52.66 9.56 52.53 9.82 52.39 10.08 52.26 10.34 52.13 10.6 51.99 10.86 51.86 11.12 51.72 11.38 51.59 11.64 51.46 11.9 51.32 12.03 51.58 12.17 51.84 12.3 52.1 12.44 52.36 12.57 52.63 12.7 52.89 12.84 53.15 12.97 53.41 13.1 53.67 13.24 53.93 13.5 53.79 13.76 53.66 14.02 53.53 14.28 53.39 14.54 53.26 14.8 53.13 15.06 52.99 15.32 52.86 15.58 52.72 15.84 52.59 16.1 52.46 16.36 52.32 16.62 52.19 16.88 52.05 17.15 51.92 17.41 51.79 17.67 51.65 17.93 51.52 18.19 51.39 18.45 51.25 18.58 51.51 18.72 51.77 18.85 52.03 18.98 52.29 19.12 52.55 19.25 52.82 19.38 53.08 19.52 53.34 19.65 53.6 19.79 53.86 20.05 53.72 20.31 53.59 20.57 53.46 20.83 53.32 21.09 53.19 21.35 53.05 21.61 52.92 21.87 52.79 22.13 52.65 22.39 52.52 22.52 52.78 22.66 53.04 22.79 53.3 22.93 53.56 23.06 53.82 23.19 54.08 23.33 54.34 23.46 54.6 23.6 54.86 23.73 55.12 23.86 55.38 24 55.65 24.13 55.91 24.26 56.17 24.4 56.43 24.53 56.69 24.67 56.95 24.8 57.21 24.93 57.47 25.07 57.73 25.33 57.6 25.59 57.46 25.85 57.33 26.11 57.19 26.37 57.06 26.63 56.93 26.89 56.79 27.15 56.66 27.41 56.53 27.67 56.39 27.81 56.65 27.94 56.91 28.07 57.17 28.21 57.43 28.34 57.69 28.47 57.95 28.61 58.22 28.74 58.48 28.88 58.74 29.01 59 29.27 58.86 29.53 58.73 29.79 58.6 30.05 58.46 30.31 58.33 30.57 58.19 30.83 58.06 31.09 57.93 31.35 57.79 31.61 57.66 31.88 57.52 32.14 57.39 32.4 57.26 32.66 57.12 32.92 56.99 33.18 56.86 33.44 56.72 33.7 56.59 33.96 56.45 34.22 56.32 34.09 56.06 33.95 55.8 33.82 55.54 33.68 55.28 33.55 55.02 33.42 54.76 33.28 54.5 33.15 54.24 33.02 53.98 32.88 53.72 33.14 53.58 33.4 53.45 33.66 53.31 33.92 53.18 34.18 53.05 34.45 52.91 34.71 52.78 34.97 52.65 35.23 52.51 35.49 52.38 35.35 52.12 35.22 51.86 35.09 51.6 34.95 51.34 34.82 51.08 34.68 50.81 34.55 50.55 34.42 50.29 34.28 50.03 34.15 49.77 34.02 49.51 33.88 49.25 33.75 48.99 33.61 48.73 33.48 48.47 33.35 48.21 33.21 47.95 33.08 47.69 32.95 47.43 32.81 47.17 33.07 47.03 33.33 46.9 33.59 46.77 33.85 46.63 34.11 46.5 34.37 46.36 34.63 46.23 34.9 46.1 35.16 45.96 35.42 45.83 35.28 45.57 35.15 45.31 35.01 45.05 34.88 44.79 34.75 44.53 34.61 44.27 34.48 44.01 34.35 43.75 34.21 43.49 34.08 43.22 34.34 43.09 34.6 42.96 34.86 42.82 35.12 42.69 35.38 42.56 35.64 42.42 35.9 42.29 36.16 42.15 36.42 42.02 36.68 41.89 36.55 41.63 36.42 41.37 36.28 41.11 36.15 40.84 36.01 40.58 35.88 40.32 35.75 40.06 35.61 39.8 35.48 39.54 35.35 39.28 35.61 39.15 35.87 39.01 36.13 38.88 36.39 38.75 36.65 38.61 36.91 38.48 37.17 38.34 37.43 38.21 37.69 38.08 37.95 37.94 37.82 37.68 37.68 37.42 37.55 37.16 37.42 36.9 37.28 36.64 37.15 36.38 37.01 36.12 36.88 35.86 36.75 35.6 36.61 35.34 36.87 35.2 37.13 35.07 37.39 34.94 37.65 34.8 37.92 34.67 38.18 34.54 38.44 34.4 38.7 34.27 38.96 34.13 39.22 34 39.08 33.74 38.95 33.48 38.82 33.22 38.68 32.96 38.55 32.7 38.42 32.44 38.28 32.18 38.15 31.92 38.01 31.66 37.88 31.4 37.75 31.13 37.61 30.87 37.48 30.61 37.34 30.35 37.21 30.09 37.08 29.83 36.94 29.57 36.81 29.31 36.68 29.05 36.54 28.79 36.8 28.66 37.06 28.52 37.32 28.39 37.58 28.26 37.84 28.12 38.11 27.99 38.37 27.85 38.63 27.72 38.89 27.59 39.15 27.45 39.01 27.19 38.88 26.93 38.75 26.67 38.61 26.41 38.48 26.15 38.34 25.89 38.21 25.63 38.08 25.37 37.94 25.11 37.81 24.85 37.68 24.59 37.54 24.33 37.41 24.07 37.27 23.81 37.14 23.54 37.01 23.28 36.87 23.02 36.74 22.76 36.6 22.5 36.47 22.24 36.21 22.38"/>
    <polygon class="cls-2" points="418.27 1.41 418.01 1.54 417.75 1.68 417.49 1.81 417.23 1.94 416.97 2.08 416.71 2.21 416.45 2.34 416.19 2.48 415.93 2.61 415.79 2.35 415.66 2.09 415.53 1.83 415.39 1.57 415.26 1.3 415.13 1.04 414.99 .78 414.86 .52 414.73 .26 414.6 0 414.33 .13 414.07 .27 413.81 .4 413.55 .53 413.29 .67 413.03 .8 412.77 .93 412.51 1.06 412.25 1.2 411.99 1.33 411.73 1.46 411.46 1.6 411.2 1.73 410.94 1.86 410.68 2 410.42 2.13 410.16 2.26 409.9 2.39 409.64 2.53 409.38 2.66 409.12 2.79 408.86 2.93 408.59 3.06 408.33 3.19 408.07 3.33 407.81 3.46 407.55 3.59 407.29 3.72 407.03 3.86 406.77 3.99 406.51 4.12 406.25 4.26 405.99 4.39 405.72 4.52 405.46 4.66 405.2 4.79 404.94 4.92 404.68 5.05 404.42 5.19 404.16 5.32 403.9 5.45 403.64 5.59 403.38 5.72 403.12 5.85 402.85 5.99 402.59 6.12 402.33 6.25 402.07 6.38 401.81 6.52 401.55 6.65 401.68 6.91 401.82 7.17 401.95 7.43 402.08 7.69 402.21 7.96 402.35 8.22 402.48 8.48 402.61 8.74 402.75 9 402.88 9.26 402.62 9.39 402.36 9.53 402.1 9.66 401.84 9.79 401.58 9.92 401.31 10.06 401.05 10.19 400.79 10.32 400.53 10.46 400.27 10.59 400.4 10.85 400.54 11.11 400.67 11.37 400.8 11.63 400.94 11.89 401.07 12.16 401.2 12.42 401.33 12.68 401.47 12.94 401.6 13.2 401.34 13.33 401.08 13.46 400.82 13.6 400.56 13.73 400.3 13.86 400.04 14 399.77 14.13 399.51 14.26 399.25 14.4 398.99 14.53 398.86 14.27 398.73 14.01 398.59 13.75 398.46 13.49 398.33 13.22 398.19 12.96 398.06 12.7 397.93 12.44 397.79 12.18 397.66 11.92 397.4 12.05 397.14 12.19 396.88 12.32 396.62 12.45 396.36 12.58 396.1 12.72 395.84 12.85 395.57 12.98 395.31 13.12 395.05 13.25 394.79 13.38 394.53 13.52 394.27 13.65 394.01 13.78 393.75 13.92 393.49 14.05 393.23 14.18 392.97 14.31 392.7 14.45 392.44 14.58 392.31 14.32 392.18 14.06 392.04 13.8 391.91 13.54 391.78 13.28 391.65 13.01 391.51 12.75 391.38 12.49 391.25 12.23 391.11 11.97 390.85 12.1 390.59 12.24 390.33 12.37 390.07 12.5 389.81 12.64 389.55 12.77 389.29 12.9 389.03 13.04 388.77 13.17 388.5 13.3 388.24 13.43 387.98 13.57 387.72 13.7 387.46 13.83 387.2 13.97 386.94 14.1 386.68 14.23 386.42 14.37 386.16 14.5 385.9 14.63 385.63 14.76 385.37 14.9 385.11 15.03 384.85 15.16 384.59 15.3 384.33 15.43 384.07 15.56 383.81 15.7 383.55 15.83 383.29 15.96 383.42 16.22 383.55 16.48 383.69 16.74 383.82 17.01 383.95 17.27 384.08 17.53 384.22 17.79 384.35 18.05 384.48 18.31 384.62 18.57 384.36 18.7 384.09 18.84 383.83 18.97 383.57 19.1 383.31 19.24 383.05 19.37 382.79 19.5 382.53 19.63 382.27 19.77 382.01 19.9 382.14 20.16 382.27 20.42 382.41 20.68 382.54 20.94 382.67 21.21 382.81 21.47 382.94 21.73 383.07 21.99 383.2 22.25 383.34 22.51 383.47 22.77 383.6 23.03 383.74 23.29 383.87 23.55 384 23.81 384.14 24.08 384.27 24.34 384.4 24.6 384.53 24.86 384.67 25.12 384.8 25.38 384.93 25.64 385.07 25.9 385.2 26.16 385.33 26.42 385.47 26.68 385.6 26.95 385.73 27.21 385.86 27.47 386 27.73 386.26 27.59 386.52 27.46 386.78 27.33 387.04 27.2 387.3 27.06 387.56 26.93 387.82 26.8 388.08 26.66 388.35 26.53 388.61 26.4 388.74 26.66 388.87 26.92 389.01 27.18 389.14 27.44 389.27 27.7 389.4 27.96 389.54 28.22 389.67 28.49 389.8 28.75 389.94 29.01 390.07 29.27 390.2 29.53 390.34 29.79 390.47 30.05 390.6 30.31 390.73 30.57 390.87 30.83 391 31.09 391.13 31.36 391.27 31.62 391.53 31.48 391.79 31.35 392.05 31.22 392.31 31.08 392.57 30.95 392.83 30.82 393.09 30.68 393.35 30.55 393.62 30.42 393.88 30.29 394.01 30.55 394.14 30.81 394.27 31.07 394.41 31.33 394.54 31.59 394.67 31.85 394.81 32.11 394.94 32.37 395.07 32.63 395.21 32.89 395.47 32.76 395.73 32.63 395.99 32.5 396.25 32.36 396.51 32.23 396.77 32.1 397.03 31.96 397.29 31.83 397.55 31.7 397.82 31.56 398.08 31.43 398.34 31.3 398.6 31.17 398.86 31.03 399.12 30.9 399.38 30.77 399.64 30.63 399.9 30.5 400.16 30.37 400.42 30.23 400.56 30.5 400.69 30.76 400.82 31.02 400.96 31.28 401.09 31.54 401.22 31.8 401.36 32.06 401.49 32.32 401.62 32.58 401.75 32.84 402.02 32.71 402.28 32.58 402.54 32.44 402.8 32.31 403.06 32.18 403.32 32.05 403.58 31.91 403.84 31.78 404.1 31.65 404.36 31.51 404.5 31.77 404.63 32.04 404.76 32.3 404.9 32.56 405.03 32.82 405.16 33.08 405.29 33.34 405.43 33.6 405.56 33.86 405.69 34.12 405.83 34.38 405.96 34.64 406.09 34.91 406.23 35.17 406.36 35.43 406.49 35.69 406.62 35.95 406.76 36.21 406.89 36.47 407.02 36.73 407.28 36.6 407.55 36.47 407.81 36.33 408.07 36.2 408.33 36.07 408.59 35.93 408.85 35.8 409.11 35.67 409.37 35.53 409.63 35.4 409.77 35.66 409.9 35.92 410.03 36.18 410.16 36.45 410.3 36.71 410.43 36.97 410.56 37.23 410.7 37.49 410.83 37.75 410.96 38.01 411.22 37.88 411.48 37.74 411.75 37.61 412.01 37.48 412.27 37.35 412.53 37.21 412.79 37.08 413.05 36.95 413.31 36.81 413.57 36.68 413.83 36.55 414.09 36.41 414.35 36.28 414.62 36.15 414.88 36.02 415.14 35.88 415.4 35.75 415.66 35.62 415.92 35.48 416.18 35.35 416.05 35.09 415.91 34.83 415.78 34.57 415.65 34.31 415.52 34.05 415.38 33.79 415.25 33.52 415.12 33.26 414.98 33 414.85 32.74 415.11 32.61 415.37 32.48 415.63 32.34 415.89 32.21 416.16 32.08 416.42 31.94 416.68 31.81 416.94 31.68 417.2 31.54 417.46 31.41 417.33 31.15 417.19 30.89 417.06 30.63 416.93 30.37 416.79 30.11 416.66 29.85 416.53 29.58 416.4 29.32 416.26 29.06 416.13 28.8 416 28.54 415.86 28.28 415.73 28.02 415.6 27.76 415.46 27.5 415.33 27.24 415.2 26.98 415.07 26.71 414.93 26.45 414.8 26.19 415.06 26.06 415.32 25.93 415.58 25.79 415.84 25.66 416.1 25.53 416.37 25.4 416.63 25.26 416.89 25.13 417.15 25 417.41 24.86 417.28 24.6 417.14 24.34 417.01 24.08 416.88 23.82 416.74 23.56 416.61 23.3 416.48 23.04 416.34 22.78 416.21 22.51 416.08 22.25 416.34 22.12 416.6 21.99 416.86 21.85 417.12 21.72 417.38 21.59 417.64 21.46 417.91 21.32 418.17 21.19 418.43 21.06 418.69 20.92 418.55 20.66 418.42 20.4 418.29 20.14 418.16 19.88 418.02 19.62 417.89 19.36 417.76 19.1 417.62 18.84 417.49 18.58 417.36 18.31 417.62 18.18 417.88 18.05 418.14 17.92 418.4 17.78 418.66 17.65 418.92 17.52 419.18 17.38 419.44 17.25 419.71 17.12 419.97 16.98 419.83 16.72 419.7 16.46 419.57 16.2 419.43 15.94 419.3 15.68 419.17 15.42 419.04 15.16 418.9 14.9 418.77 14.64 418.64 14.38 418.9 14.24 419.16 14.11 419.42 13.98 419.68 13.84 419.94 13.71 420.2 13.58 420.46 13.44 420.72 13.31 420.98 13.18 421.25 13.05 421.11 12.78 420.98 12.52 420.85 12.26 420.71 12 420.58 11.74 420.45 11.48 420.31 11.22 420.18 10.96 420.05 10.7 419.92 10.44 419.78 10.18 419.65 9.91 419.52 9.65 419.38 9.39 419.25 9.13 419.12 8.87 418.98 8.61 418.85 8.35 418.72 8.09 418.59 7.83 418.85 7.69 419.11 7.56 419.37 7.43 419.63 7.3 419.89 7.16 420.15 7.03 420.41 6.9 420.67 6.76 420.93 6.63 421.19 6.5 421.06 6.24 420.93 5.98 420.8 5.71 420.66 5.45 420.53 5.19 420.4 4.93 420.26 4.67 420.13 4.41 420 4.15 419.86 3.89 419.73 3.63 419.6 3.37 419.47 3.11 419.33 2.84 419.2 2.58 419.07 2.32 418.93 2.06 418.8 1.8 418.67 1.54 418.53 1.28 418.27 1.41"/>
    <g>
      <rect class="cls-1" x="57.76" y="15.44" width="288" height="49.9" rx="24.95" ry="24.95"/>
      <g>
        <path class="cls-3" d="M124.97,52.42c0-.84.4-1.65,1.08-2.38.78-.89,2.03-1.76,3.86-2.08-2.3-.05-3.11-.54-4-2.3-.41-.84-.89-1.94-1.67-3.89-.92-2.3-1.89-4.35-1.89-5.62,0-1.46,1.03-2.65,2.81-2.65,1.49,0,2.27.76,2.7,2.65.27,1.05.65,2.92,1.16,5.21.35,1.57.68,3,.86,4.19.16-1.16.38-2.57.7-4.08.35-1.95.59-3.38.95-4.81.35-1.78.92-3.16,2.86-3.16,1.54,0,2.67.86,2.67,2.57s-1.16,4-1.92,5.83l-3.02,7c-.59,1.35-1.46,3.54-2.4,4.67-.59.78-1.43,1.21-2.35,1.19-1.3-.03-2.4-1.05-2.4-2.35Z"/>
        <path class="cls-3" d="M138.04,41.16c0-4.48,2.57-7.64,7.18-7.64,3.86,0,6.67,2.38,6.67,6.32,0,1.57-.73,2.59-2.46,2.59h-6.48v.03c.05,1.22.86,2.4,2.65,2.4,1.11,0,1.62-.38,2.35-.89.4-.32.89-.57,1.49-.57,1.24,0,1.86.86,1.86,1.89,0,.81-.3,1.38-.76,1.84-.89.89-2.62,1.57-5,1.57-4.89,0-7.51-2.92-7.51-7.54ZM147.25,40.1c0-1.38-.49-2.81-2.03-2.81-1.62,0-2.19,1.19-2.3,2.81h4.32Z"/>
        <path class="cls-3" d="M155.19,47.88c-1.08-.51-1.92-1.32-1.89-2.35,0-1,.73-2.05,1.86-2.05.73,0,1.32.35,1.97.7.84.41,1.62.76,2.57.76.78,0,1.51-.27,1.51-1,0-.86-1.13-.92-3.24-1.43-2.13-.54-4.32-1.38-4.32-4.32s2.51-4.65,6.21-4.65c1.13,0,2.51.22,3.62.76.97.51,1.65,1.22,1.65,2.24s-.62,2.03-1.86,2.03c-.78,0-1.27-.32-1.86-.65-.59-.3-1.13-.57-1.92-.57-.84,0-1.32.32-1.32.89,0,.84,1.19,1.05,2.54,1.32,2.21.46,5.21,1.08,5.21,4.43s-3.48,4.67-6.62,4.67c-1.08,0-2.75-.13-4.11-.78Z"/>
        <path class="cls-3" d="M168.26,39.27l-.92-9.7c-.24-2.24.65-3.56,2.84-3.56s3.05,1.16,2.81,3.56l-.86,9.7c-.14,1.4-.59,2.35-1.94,2.35s-1.78-1.03-1.92-2.35ZM167.7,46.26c0-1.67.92-2.51,2.48-2.54,1.51,0,2.48.86,2.48,2.54s-.97,2.46-2.48,2.46-2.48-.84-2.48-2.46Z"/>
        <path class="cls-3" d="M176.58,39.27l-.92-9.7c-.24-2.24.65-3.56,2.84-3.56s3.05,1.16,2.81,3.56l-.86,9.7c-.14,1.4-.59,2.35-1.94,2.35s-1.78-1.03-1.92-2.35ZM176.01,46.26c0-1.67.92-2.51,2.48-2.54,1.51,0,2.48.86,2.48,2.54s-.97,2.46-2.48,2.46-2.48-.84-2.48-2.46Z"/>
        <path class="cls-3" d="M184.9,39.27l-.92-9.7c-.24-2.24.65-3.56,2.84-3.56s3.05,1.16,2.81,3.56l-.86,9.7c-.14,1.4-.59,2.35-1.94,2.35s-1.78-1.03-1.92-2.35ZM184.33,46.26c0-1.67.92-2.51,2.48-2.54,1.51,0,2.48.86,2.48,2.54s-.97,2.46-2.48,2.46-2.48-.84-2.48-2.46Z"/>
        <path class="cls-3" d="M193.22,39.27l-.92-9.7c-.24-2.24.65-3.56,2.84-3.56s3.05,1.16,2.81,3.56l-.86,9.7c-.14,1.4-.59,2.35-1.94,2.35s-1.78-1.03-1.92-2.35ZM192.65,46.26c0-1.67.92-2.51,2.48-2.54,1.51,0,2.48.86,2.48,2.54s-.97,2.46-2.48,2.46-2.48-.84-2.48-2.46Z"/>
        <path class="cls-3" d="M201.53,39.27l-.92-9.7c-.24-2.24.65-3.56,2.83-3.56s3.05,1.16,2.81,3.56l-.86,9.7c-.13,1.4-.59,2.35-1.95,2.35s-1.78-1.03-1.92-2.35ZM200.97,46.26c0-1.67.92-2.51,2.48-2.54,1.51,0,2.49.86,2.49,2.54s-.97,2.46-2.49,2.46-2.48-.84-2.48-2.46Z"/>
        <path class="cls-3" d="M209.85,39.27l-.92-9.7c-.24-2.24.65-3.56,2.84-3.56s3.05,1.16,2.81,3.56l-.86,9.7c-.14,1.4-.59,2.35-1.94,2.35s-1.78-1.03-1.92-2.35ZM209.29,46.26c0-1.67.92-2.51,2.48-2.54,1.51,0,2.48.86,2.48,2.54s-.97,2.46-2.48,2.46-2.48-.84-2.48-2.46Z"/>
        <path class="cls-3" d="M218.17,39.27l-.92-9.7c-.24-2.24.65-3.56,2.83-3.56s3.05,1.16,2.81,3.56l-.87,9.7c-.13,1.4-.59,2.35-1.94,2.35s-1.78-1.03-1.92-2.35ZM217.6,46.26c0-1.67.92-2.51,2.48-2.54,1.51,0,2.49.86,2.49,2.54s-.97,2.46-2.49,2.46-2.48-.84-2.48-2.46Z"/>
        <path class="cls-3" d="M226.49,39.27l-.92-9.7c-.24-2.24.65-3.56,2.84-3.56s3.05,1.16,2.81,3.56l-.86,9.7c-.14,1.4-.59,2.35-1.95,2.35s-1.78-1.03-1.92-2.35ZM225.92,46.26c0-1.67.92-2.51,2.48-2.54,1.51,0,2.48.86,2.48,2.54s-.97,2.46-2.48,2.46-2.48-.84-2.48-2.46Z"/>
        <path class="cls-3" d="M234.8,39.27l-.92-9.7c-.24-2.24.65-3.56,2.84-3.56s3.05,1.16,2.81,3.56l-.86,9.7c-.14,1.4-.59,2.35-1.94,2.35s-1.78-1.03-1.92-2.35ZM234.24,46.26c0-1.67.92-2.51,2.48-2.54,1.51,0,2.48.86,2.48,2.54s-.97,2.46-2.48,2.46-2.48-.84-2.48-2.46Z"/>
        <path class="cls-3" d="M243.12,39.27l-.92-9.7c-.24-2.24.65-3.56,2.83-3.56s3.05,1.16,2.81,3.56l-.86,9.7c-.13,1.4-.59,2.35-1.95,2.35s-1.78-1.03-1.92-2.35ZM242.55,46.26c0-1.67.92-2.51,2.48-2.54,1.51,0,2.49.86,2.49,2.54s-.97,2.46-2.49,2.46-2.48-.84-2.48-2.46Z"/>
        <path class="cls-3" d="M251.44,39.27l-.92-9.7c-.24-2.24.65-3.56,2.84-3.56s3.05,1.16,2.81,3.56l-.86,9.7c-.14,1.4-.59,2.35-1.95,2.35s-1.78-1.03-1.92-2.35ZM250.87,46.26c0-1.67.92-2.51,2.48-2.54,1.51,0,2.48.86,2.48,2.54s-.97,2.46-2.48,2.46-2.48-.84-2.48-2.46Z"/>
        <path class="cls-3" d="M259.76,39.27l-.92-9.7c-.24-2.24.65-3.56,2.84-3.56s3.05,1.16,2.81,3.56l-.86,9.7c-.14,1.4-.59,2.35-1.94,2.35s-1.78-1.03-1.92-2.35ZM259.19,46.26c0-1.67.92-2.51,2.48-2.54,1.51,0,2.48.86,2.48,2.54s-.97,2.46-2.48,2.46-2.48-.84-2.48-2.46Z"/>
        <path class="cls-3" d="M268.08,39.27l-.92-9.7c-.24-2.24.65-3.56,2.83-3.56s3.05,1.16,2.81,3.56l-.86,9.7c-.13,1.4-.59,2.35-1.95,2.35s-1.78-1.03-1.92-2.35ZM267.51,46.26c0-1.67.92-2.51,2.48-2.54,1.51,0,2.49.86,2.49,2.54s-.97,2.46-2.49,2.46-2.48-.84-2.48-2.46Z"/>
        <path class="cls-3" d="M276.39,39.27l-.92-9.7c-.24-2.24.65-3.56,2.84-3.56s3.05,1.16,2.81,3.56l-.86,9.7c-.14,1.4-.59,2.35-1.95,2.35s-1.78-1.03-1.92-2.35ZM275.83,46.26c0-1.67.92-2.51,2.48-2.54,1.51,0,2.48.86,2.48,2.54s-.97,2.46-2.48,2.46-2.48-.84-2.48-2.46Z"/>
      </g>
    </g>
  </g>
</svg>