<?xml version="1.0" encoding="UTF-8"?>
<svg id="Layer_2" data-name="Layer 2" xmlns="http://www.w3.org/2000/svg" viewBox="0 0 423.24 72.55">
  <defs>
    <style>
      .cls-1 {
        opacity: .5;
      }

      .cls-1, .cls-2 {
        fill: #ffb3a5;
      }

      .cls-3 {
        fill: #5e5473;
      }
    </style>
  </defs>
  <g id="Layer_1-2" data-name="Layer 1">
    <polygon class="cls-2" points="422.95 37.21 422.67 37.14 422.39 37.07 422.1 36.99 421.82 36.92 421.54 36.84 421.25 36.77 420.97 36.7 420.69 36.62 420.4 36.55 420.48 36.27 420.55 35.98 420.62 35.7 420.7 35.42 420.77 35.13 420.84 34.85 420.92 34.57 420.99 34.28 421.07 34 421.14 33.72 420.86 33.64 420.57 33.57 420.29 33.49 420.01 33.42 419.72 33.35 419.44 33.27 419.15 33.2 418.87 33.13 418.59 33.05 418.3 32.98 418.02 32.91 417.74 32.83 417.45 32.76 417.17 32.69 416.89 32.61 416.6 32.54 416.32 32.47 416.04 32.39 415.75 32.32 415.47 32.24 415.19 32.17 414.9 32.1 414.62 32.02 414.34 31.95 414.05 31.88 413.77 31.8 413.49 31.73 413.2 31.66 412.92 31.58 412.64 31.51 412.35 31.44 412.07 31.36 411.78 31.29 411.5 31.21 411.22 31.14 410.93 31.07 410.65 30.99 410.37 30.92 410.08 30.85 409.8 30.77 409.52 30.7 409.23 30.63 408.95 30.55 408.67 30.48 408.38 30.41 408.1 30.33 407.82 30.26 407.53 30.18 407.25 30.11 406.97 30.04 406.89 30.32 406.82 30.6 406.75 30.89 406.67 31.17 406.6 31.46 406.52 31.74 406.45 32.02 406.38 32.31 406.3 32.59 406.23 32.87 405.95 32.8 405.66 32.73 405.38 32.65 405.1 32.58 404.81 32.5 404.53 32.43 404.25 32.36 403.96 32.28 403.68 32.21 403.4 32.14 403.32 32.42 403.25 32.7 403.17 32.99 403.1 33.27 403.03 33.55 402.95 33.84 402.88 34.12 402.81 34.4 402.73 34.69 402.66 34.97 402.38 34.9 402.09 34.82 401.81 34.75 401.53 34.68 401.24 34.6 400.96 34.53 400.68 34.46 400.39 34.38 400.11 34.31 399.83 34.24 399.9 33.95 399.97 33.67 400.05 33.39 400.12 33.1 400.19 32.82 400.27 32.54 400.34 32.25 400.41 31.97 400.49 31.68 400.56 31.4 400.28 31.33 399.99 31.25 399.71 31.18 399.43 31.11 399.14 31.03 398.86 30.96 398.58 30.89 398.29 30.81 398.01 30.74 397.73 30.67 397.44 30.59 397.16 30.52 396.88 30.44 396.59 30.37 396.31 30.3 396.03 30.22 395.74 30.15 395.46 30.08 395.17 30 394.89 29.93 394.96 29.65 395.04 29.36 395.11 29.08 395.19 28.8 395.26 28.51 395.33 28.23 395.41 27.95 395.48 27.66 395.55 27.38 395.63 27.1 395.34 27.02 395.06 26.95 394.78 26.87 394.49 26.8 394.21 26.73 393.93 26.65 393.64 26.58 393.36 26.51 393.08 26.43 392.79 26.36 392.51 26.29 392.23 26.21 391.94 26.14 391.66 26.07 391.37 25.99 391.09 25.92 390.81 25.84 390.52 25.77 390.24 25.7 389.96 25.62 389.67 25.55 389.39 25.48 389.11 25.4 388.82 25.33 388.54 25.26 388.26 25.18 387.97 25.11 387.69 25.04 387.41 24.96 387.12 24.89 387.05 25.17 386.98 25.46 386.9 25.74 386.83 26.02 386.76 26.31 386.68 26.59 386.61 26.87 386.53 27.16 386.46 27.44 386.39 27.72 386.1 27.65 385.82 27.58 385.54 27.5 385.25 27.43 384.97 27.36 384.69 27.28 384.4 27.21 384.12 27.13 383.84 27.06 383.55 26.99 383.48 27.27 383.41 27.55 383.33 27.84 383.26 28.12 383.18 28.41 383.11 28.69 383.04 28.97 382.96 29.26 382.89 29.54 382.82 29.82 382.74 30.11 382.67 30.39 382.6 30.67 382.52 30.96 382.45 31.24 382.38 31.52 382.3 31.81 382.23 32.09 382.16 32.37 382.08 32.66 382.01 32.94 381.93 33.22 381.86 33.51 381.79 33.79 381.71 34.07 381.64 34.36 381.57 34.64 381.49 34.92 381.42 35.21 381.35 35.49 381.63 35.57 381.91 35.64 382.2 35.71 382.48 35.79 382.76 35.86 383.05 35.93 383.33 36.01 383.61 36.08 383.9 36.15 384.18 36.23 384.11 36.51 384.03 36.79 383.96 37.08 383.89 37.36 383.81 37.64 383.74 37.93 383.67 38.21 383.59 38.5 383.52 38.78 383.45 39.06 383.37 39.35 383.3 39.63 383.22 39.91 383.15 40.2 383.08 40.48 383 40.76 382.93 41.05 382.86 41.33 382.78 41.61 382.71 41.9 382.99 41.97 383.28 42.04 383.56 42.12 383.84 42.19 384.13 42.26 384.41 42.34 384.69 42.41 384.98 42.49 385.26 42.56 385.54 42.63 385.47 42.92 385.4 43.2 385.32 43.48 385.25 43.77 385.18 44.05 385.1 44.33 385.03 44.62 384.96 44.9 384.88 45.18 384.81 45.47 385.09 45.54 385.38 45.61 385.66 45.69 385.94 45.76 386.23 45.83 386.51 45.91 386.79 45.98 387.08 46.06 387.36 46.13 387.64 46.2 387.93 46.28 388.21 46.35 388.49 46.42 388.78 46.5 389.06 46.57 389.34 46.64 389.63 46.72 389.91 46.79 390.19 46.86 390.48 46.94 390.4 47.22 390.33 47.51 390.26 47.79 390.18 48.07 390.11 48.36 390.04 48.64 389.96 48.92 389.89 49.21 389.82 49.49 389.74 49.77 390.03 49.85 390.31 49.92 390.59 49.99 390.88 50.07 391.16 50.14 391.44 50.21 391.73 50.29 392.01 50.36 392.29 50.43 392.58 50.51 392.5 50.79 392.43 51.08 392.36 51.36 392.28 51.64 392.21 51.93 392.14 52.21 392.06 52.49 391.99 52.78 391.92 53.06 391.84 53.34 391.77 53.63 391.69 53.91 391.62 54.19 391.55 54.48 391.47 54.76 391.4 55.04 391.33 55.33 391.25 55.61 391.18 55.89 391.11 56.18 391.39 56.25 391.67 56.32 391.96 56.4 392.24 56.47 392.52 56.55 392.81 56.62 393.09 56.69 393.37 56.77 393.66 56.84 393.94 56.91 393.87 57.2 393.79 57.48 393.72 57.76 393.65 58.05 393.57 58.33 393.5 58.61 393.43 58.9 393.35 59.18 393.28 59.46 393.2 59.75 393.49 59.82 393.77 59.9 394.06 59.97 394.34 60.04 394.62 60.12 394.91 60.19 395.19 60.26 395.47 60.34 395.76 60.41 396.04 60.48 396.32 60.56 396.61 60.63 396.89 60.7 397.17 60.78 397.46 60.85 397.74 60.92 398.02 61 398.31 61.07 398.59 61.15 398.87 61.22 398.95 60.94 399.02 60.65 399.1 60.37 399.17 60.09 399.24 59.8 399.32 59.52 399.39 59.23 399.46 58.95 399.54 58.67 399.61 58.38 399.89 58.46 400.18 58.53 400.46 58.61 400.74 58.68 401.03 58.75 401.31 58.83 401.59 58.9 401.88 58.97 402.16 59.05 402.44 59.12 402.52 58.84 402.59 58.55 402.67 58.27 402.74 57.99 402.81 57.7 402.89 57.42 402.96 57.14 403.03 56.85 403.11 56.57 403.18 56.29 403.25 56 403.33 55.72 403.4 55.44 403.47 55.15 403.55 54.87 403.62 54.58 403.7 54.3 403.77 54.02 403.84 53.73 403.92 53.45 404.2 53.52 404.48 53.6 404.77 53.67 405.05 53.74 405.33 53.82 405.62 53.89 405.9 53.97 406.18 54.04 406.47 54.11 406.75 54.19 406.82 53.9 406.9 53.62 406.97 53.34 407.04 53.05 407.12 52.77 407.19 52.49 407.27 52.2 407.34 51.92 407.41 51.64 407.49 51.35 407.77 51.43 408.05 51.5 408.34 51.57 408.62 51.65 408.9 51.72 409.19 51.79 409.47 51.87 409.75 51.94 410.04 52.01 410.32 52.09 410.39 51.8 410.47 51.52 410.54 51.24 410.61 50.95 410.69 50.67 410.76 50.39 410.84 50.1 410.91 49.82 410.98 49.54 411.06 49.25 411.34 49.33 411.62 49.4 411.91 49.47 412.19 49.55 412.47 49.62 412.76 49.69 413.04 49.77 413.32 49.84 413.61 49.91 413.89 49.99 413.96 49.7 414.04 49.42 414.11 49.14 414.19 48.85 414.26 48.57 414.33 48.29 414.41 48 414.48 47.72 414.55 47.44 414.63 47.15 414.91 47.23 415.19 47.3 415.48 47.37 415.76 47.45 416.04 47.52 416.33 47.59 416.61 47.67 416.89 47.74 417.18 47.82 417.46 47.89 417.53 47.61 417.61 47.32 417.68 47.04 417.76 46.76 417.83 46.47 417.9 46.19 417.98 45.9 418.05 45.62 418.12 45.34 418.2 45.05 418.27 44.77 418.34 44.49 418.42 44.2 418.49 43.92 418.56 43.64 418.64 43.35 418.71 43.07 418.79 42.79 418.86 42.5 418.93 42.22 419.22 42.29 419.5 42.37 419.78 42.44 420.07 42.51 420.35 42.59 420.63 42.66 420.92 42.73 421.2 42.81 421.48 42.88 421.77 42.96 421.84 42.67 421.91 42.39 421.99 42.1 422.06 41.82 422.13 41.54 422.21 41.25 422.28 40.97 422.36 40.69 422.43 40.4 422.5 40.12 422.58 39.84 422.65 39.55 422.72 39.27 422.8 38.99 422.87 38.7 422.94 38.42 423.02 38.14 423.09 37.85 423.16 37.57 423.24 37.29 422.95 37.21"/>
    <polygon class="cls-2" points="40.29 54.44 40.03 54.3 39.77 54.17 39.51 54.04 39.25 53.9 38.99 53.77 38.73 53.63 38.47 53.5 38.21 53.36 37.95 53.23 38.08 52.97 38.21 52.71 38.35 52.45 38.48 52.19 38.62 51.93 38.75 51.67 38.89 51.41 39.02 51.15 39.15 50.89 39.29 50.63 39.03 50.49 38.77 50.36 38.51 50.22 38.25 50.09 37.99 49.96 37.73 49.82 37.47 49.69 37.21 49.55 36.95 49.42 36.68 49.29 36.42 49.15 36.16 49.02 35.9 48.88 35.64 48.75 35.38 48.61 35.12 48.48 34.86 48.35 34.6 48.21 34.34 48.08 34.08 47.94 33.82 47.81 33.56 47.68 33.3 47.54 33.04 47.41 32.78 47.27 32.52 47.14 32.26 47 32 46.87 31.74 46.74 31.48 46.6 31.22 46.47 30.96 46.33 30.7 46.2 30.44 46.06 30.18 45.93 29.92 45.8 29.66 45.66 29.4 45.53 29.14 45.39 28.88 45.26 28.62 45.13 28.36 44.99 28.09 44.86 27.83 44.72 27.57 44.59 27.31 44.45 27.05 44.32 26.79 44.19 26.53 44.05 26.27 43.92 26.14 44.18 26 44.44 25.87 44.7 25.74 44.96 25.6 45.22 25.47 45.48 25.33 45.74 25.2 46 25.06 46.26 24.93 46.52 24.67 46.39 24.41 46.25 24.15 46.12 23.89 45.98 23.63 45.85 23.37 45.72 23.11 45.58 22.85 45.45 22.59 45.31 22.33 45.18 22.19 45.44 22.06 45.7 21.93 45.96 21.79 46.22 21.66 46.48 21.52 46.74 21.39 47 21.25 47.26 21.12 47.52 20.99 47.78 20.73 47.65 20.47 47.51 20.2 47.38 19.94 47.25 19.68 47.11 19.42 46.98 19.16 46.84 18.9 46.71 18.64 46.57 18.38 46.44 18.52 46.18 18.65 45.92 18.79 45.66 18.92 45.4 19.05 45.14 19.19 44.88 19.32 44.62 19.46 44.36 19.59 44.1 19.72 43.84 19.46 43.7 19.2 43.57 18.94 43.43 18.68 43.3 18.42 43.17 18.16 43.03 17.9 42.9 17.64 42.76 17.38 42.63 17.12 42.5 16.86 42.36 16.6 42.23 16.34 42.09 16.08 41.96 15.82 41.82 15.56 41.69 15.3 41.56 15.04 41.42 14.78 41.29 14.52 41.15 14.65 40.89 14.79 40.63 14.92 40.37 15.06 40.11 15.19 39.85 15.32 39.59 15.46 39.33 15.59 39.07 15.73 38.81 15.86 38.55 15.6 38.42 15.34 38.28 15.08 38.15 14.82 38.01 14.56 37.88 14.3 37.75 14.04 37.61 13.78 37.48 13.52 37.34 13.26 37.21 13 37.07 12.74 36.94 12.48 36.81 12.22 36.67 11.96 36.54 11.7 36.4 11.44 36.27 11.17 36.14 10.91 36 10.65 35.87 10.39 35.73 10.13 35.6 9.87 35.46 9.61 35.33 9.35 35.2 9.09 35.06 8.83 34.93 8.57 34.79 8.31 34.66 8.05 34.52 7.92 34.79 7.78 35.05 7.65 35.31 7.51 35.57 7.38 35.83 7.25 36.09 7.11 36.35 6.98 36.61 6.84 36.87 6.71 37.13 6.45 36.99 6.19 36.86 5.93 36.73 5.67 36.59 5.41 36.46 5.15 36.32 4.89 36.19 4.63 36.05 4.37 35.92 4.11 35.79 3.97 36.05 3.84 36.31 3.7 36.57 3.57 36.83 3.44 37.09 3.3 37.35 3.17 37.61 3.03 37.87 2.9 38.13 2.76 38.39 2.63 38.65 2.5 38.91 2.36 39.17 2.23 39.43 2.09 39.69 1.96 39.95 1.83 40.21 1.69 40.47 1.56 40.73 1.42 40.99 1.29 41.25 1.15 41.51 1.02 41.77 .89 42.03 .75 42.29 .62 42.55 .48 42.81 .35 43.07 .21 43.33 .08 43.6 .34 43.73 .6 43.86 .86 44 1.12 44.13 1.38 44.27 1.64 44.4 1.9 44.53 2.16 44.67 2.42 44.8 2.68 44.94 2.55 45.2 2.42 45.46 2.28 45.72 2.15 45.98 2.01 46.24 1.88 46.5 1.74 46.76 1.61 47.02 1.48 47.28 1.34 47.54 1.21 47.8 1.07 48.06 .94 48.32 .81 48.58 .67 48.84 .54 49.1 .4 49.36 .27 49.62 .13 49.88 0 50.14 .26 50.28 .52 50.41 .78 50.55 1.04 50.68 1.3 50.81 1.56 50.95 1.82 51.08 2.08 51.22 2.34 51.35 2.6 51.49 2.47 51.75 2.33 52.01 2.2 52.27 2.07 52.53 1.93 52.79 1.8 53.05 1.66 53.31 1.53 53.57 1.4 53.83 1.26 54.09 1.52 54.22 1.78 54.36 2.04 54.49 2.3 54.62 2.56 54.76 2.82 54.89 3.08 55.03 3.34 55.16 3.6 55.3 3.86 55.43 4.12 55.56 4.38 55.7 4.65 55.83 4.91 55.97 5.17 56.1 5.43 56.24 5.69 56.37 5.95 56.5 6.21 56.64 6.47 56.77 6.33 57.03 6.2 57.29 6.06 57.55 5.93 57.81 5.8 58.07 5.66 58.33 5.53 58.59 5.39 58.85 5.26 59.11 5.13 59.37 5.39 59.51 5.65 59.64 5.91 59.78 6.17 59.91 6.43 60.05 6.69 60.18 6.95 60.31 7.21 60.45 7.47 60.58 7.73 60.72 7.59 60.98 7.46 61.24 7.33 61.5 7.19 61.76 7.06 62.02 6.92 62.28 6.79 62.54 6.66 62.8 6.52 63.06 6.39 63.32 6.25 63.58 6.12 63.84 5.98 64.1 5.85 64.36 5.72 64.62 5.58 64.88 5.45 65.14 5.31 65.4 5.18 65.66 5.04 65.92 5.31 66.06 5.57 66.19 5.83 66.33 6.09 66.46 6.35 66.59 6.61 66.73 6.87 66.86 7.13 67 7.39 67.13 7.65 67.26 7.51 67.53 7.38 67.79 7.25 68.05 7.11 68.31 6.98 68.57 6.84 68.83 6.71 69.09 6.57 69.35 6.44 69.61 6.31 69.87 6.57 70 6.83 70.14 7.09 70.27 7.35 70.4 7.61 70.54 7.87 70.67 8.13 70.81 8.39 70.94 8.65 71.08 8.91 71.21 9.17 71.34 9.43 71.48 9.69 71.61 9.95 71.75 10.21 71.88 10.47 72.01 10.73 72.15 10.99 72.28 11.25 72.42 11.51 72.55 11.65 72.29 11.78 72.03 11.91 71.77 12.05 71.51 12.18 71.25 12.32 70.99 12.45 70.73 12.59 70.47 12.72 70.21 12.85 69.95 13.11 70.08 13.37 70.22 13.63 70.35 13.9 70.49 14.16 70.62 14.42 70.75 14.68 70.89 14.94 71.02 15.2 71.16 15.46 71.29 15.59 71.03 15.73 70.77 15.86 70.51 15.99 70.25 16.13 69.99 16.26 69.73 16.4 69.47 16.53 69.21 16.66 68.95 16.8 68.69 16.93 68.43 17.07 68.17 17.2 67.91 17.34 67.65 17.47 67.39 17.6 67.13 17.74 66.87 17.87 66.6 18.01 66.34 18.14 66.08 18.4 66.22 18.66 66.35 18.92 66.49 19.18 66.62 19.44 66.76 19.7 66.89 19.96 67.02 20.22 67.16 20.48 67.29 20.74 67.43 20.88 67.17 21.01 66.91 21.15 66.65 21.28 66.38 21.41 66.12 21.55 65.86 21.68 65.6 21.82 65.34 21.95 65.08 22.09 64.82 22.35 64.96 22.61 65.09 22.87 65.23 23.13 65.36 23.39 65.49 23.65 65.63 23.91 65.76 24.17 65.9 24.43 66.03 24.69 66.16 24.82 65.9 24.96 65.64 25.09 65.38 25.23 65.12 25.36 64.86 25.49 64.6 25.63 64.34 25.76 64.08 25.9 63.82 26.03 63.56 26.29 63.7 26.55 63.83 26.81 63.96 27.07 64.1 27.33 64.23 27.59 64.37 27.85 64.5 28.11 64.64 28.37 64.77 28.63 64.9 28.77 64.64 28.9 64.38 29.04 64.12 29.17 63.86 29.3 63.6 29.44 63.34 29.57 63.08 29.71 62.82 29.84 62.56 29.98 62.3 30.24 62.43 30.5 62.57 30.76 62.7 31.02 62.84 31.28 62.97 31.54 63.11 31.8 63.24 32.06 63.37 32.32 63.51 32.58 63.64 32.71 63.38 32.85 63.12 32.98 62.86 33.12 62.6 33.25 62.34 33.38 62.08 33.52 61.82 33.65 61.56 33.79 61.3 33.92 61.04 34.05 60.78 34.19 60.52 34.32 60.26 34.46 60 34.59 59.74 34.73 59.48 34.86 59.22 34.99 58.96 35.13 58.7 35.26 58.44 35.52 58.57 35.78 58.7 36.04 58.84 36.3 58.97 36.56 59.11 36.82 59.24 37.08 59.38 37.34 59.51 37.61 59.64 37.87 59.78 38 59.52 38.13 59.26 38.27 59 38.4 58.74 38.54 58.48 38.67 58.22 38.8 57.96 38.94 57.7 39.07 57.44 39.21 57.18 39.34 56.91 39.48 56.65 39.61 56.39 39.74 56.13 39.88 55.87 40.01 55.61 40.15 55.35 40.28 55.09 40.41 54.83 40.55 54.57 40.29 54.44"/>
    <g>
      <rect class="cls-1" x="58.42" y="0" width="288" height="49.9" rx="24.95" ry="24.95"/>
      <g>
        <path class="cls-3" d="M135.37,33.59c0-.62.16-1.32.54-2.21l4.65-11.34c1.21-2.94,1.59-4.29,4.4-4.29s3.19,1.35,4.4,4.29l4.62,11.34c.38.89.54,1.59.54,2.21,0,1.7-1.43,2.65-2.65,2.65-1.97,0-2.57-1.4-3.13-3.21l-.51-1.65h-6.56l-.51,1.65c-.54,1.81-1.13,3.21-3.13,3.21-1.22,0-2.65-.95-2.65-2.65ZM147.5,27.98l-1.43-3.78c-.35-1-.81-2.46-1.11-3.54-.3,1.08-.76,2.54-1.13,3.54l-1.4,3.78h5.08Z"/>
        <path class="cls-3" d="M156.44,33.35v-14.8c0-1.49.65-2.7,2.62-2.7,2.08,0,2.67,1.19,2.67,2.67v12.15c0,.38.22.62.68.62h4.05c1.84,0,2.4,1.4,2.4,2.4s-.57,2.38-2.43,2.38h-7.4c-1.95,0-2.59-1.22-2.59-2.73Z"/>
        <path class="cls-3" d="M171.97,35.27c-1.35-.65-2.11-1.46-2.11-2.75,0-1.46.92-2.54,2.48-2.54.81,0,1.51.46,2.19.89.86.54,1.65,1.22,2.92,1.22,1.11,0,2.19-.57,2.19-1.78,0-1.46-1.13-1.86-3.4-2.38-3.65-.84-6.08-2.57-6.08-6.08,0-4.38,3.73-6.1,7.45-6.1,2.46,0,6.56.92,6.56,3.75,0,1.65-1.16,2.35-2.35,2.35-.89,0-1.4-.38-1.97-.76-.73-.51-1.38-1.05-2.57-1.05s-1.95.7-1.95,1.7c-.03,1.4,1.11,2.05,3.32,2.57,3.21.73,6.08,1.73,6.08,5.7,0,4.59-4.29,6.32-7.75,6.32-2.38,0-3.78-.46-5.02-1.05Z"/>
        <path class="cls-3" d="M186.33,26c0-6.48,4.24-10.29,10.07-10.29s10.02,3.81,10.02,10.29-4.24,10.24-10.05,10.24-10.05-3.92-10.05-10.24ZM201.24,26.03c0-3.78-2.19-5.75-4.83-5.75s-4.86,1.97-4.86,5.75,2.19,5.64,4.83,5.64,4.86-2.03,4.86-5.64Z"/>
        <path class="cls-3" d="M219.09,33.49v-5.1l-3.08-4.21-1.95-2.86c-.89-1.3-1.24-2.46-1.16-3.29.16-1.35,1.35-2.27,2.75-2.27,2.11.03,2.62,1.57,3.75,3.94l2.3,4.86,2.3-4.86c1.16-2.38,1.65-3.92,3.75-3.94,1.4,0,2.59.92,2.75,2.27.11.84-.27,2-1.16,3.29l-1.92,2.86-3.05,4.21v5.1c0,1.54-.68,2.73-2.65,2.73s-2.65-1.19-2.65-2.73Z"/>
        <path class="cls-3" d="M232.3,33.24v-14.45c0-1.57.89-2.84,2.92-2.84h7.7c1.43,0,2.13,1,2.13,2.3,0,1.19-.7,2.19-2.13,2.19h-4.65c-.76,0-.86.19-.86,1.05v2.38h4.02c1.57,0,2.16.92,2.16,2.08s-.57,2.16-2.16,2.16h-4.02v3.43h6.08c1.59,0,2.27.97,2.27,2.24s-.7,2.3-2.27,2.3h-8.26c-2,0-2.92-1.27-2.92-2.84Z"/>
        <path class="cls-3" d="M249.07,35.27c-1.35-.65-2.11-1.46-2.11-2.75,0-1.46.92-2.54,2.49-2.54.81,0,1.51.46,2.19.89.86.54,1.65,1.22,2.92,1.22,1.11,0,2.19-.57,2.19-1.78,0-1.46-1.13-1.86-3.4-2.38-3.65-.84-6.08-2.57-6.08-6.08,0-4.38,3.73-6.1,7.45-6.1,2.46,0,6.56.92,6.56,3.75,0,1.65-1.16,2.35-2.35,2.35-.89,0-1.4-.38-1.97-.76-.73-.51-1.38-1.05-2.57-1.05s-1.94.7-1.94,1.7c-.03,1.4,1.11,2.05,3.32,2.57,3.21.73,6.08,1.73,6.08,5.7,0,4.59-4.29,6.32-7.75,6.32-2.38,0-3.78-.46-5.02-1.05Z"/>
        <path class="cls-3" d="M264.7,26.84l-.92-9.7c-.24-2.24.65-3.57,2.84-3.57s3.05,1.16,2.81,3.57l-.86,9.7c-.13,1.4-.59,2.35-1.94,2.35s-1.78-1.03-1.92-2.35ZM264.14,33.84c0-1.67.92-2.51,2.49-2.54,1.51,0,2.48.86,2.48,2.54s-.97,2.46-2.48,2.46-2.49-.84-2.49-2.46Z"/>
      </g>
    </g>
  </g>
</svg>